<svg width="100" height="100" viewBox="0 0 100 100" fill="none" xmlns="http://www.w3.org/2000/svg">
<rect width="100" height="100" fill="#0D64FF"/>
<path fill-rule="evenodd" clip-rule="evenodd" d="M27.9492 31.9409C27.9492 29.7321 29.6867 27.9414 31.8298 27.9414H45.8313C45.8619 27.9414 45.8923 27.9418 45.9227 27.9425C45.9536 27.9432 45.9845 27.9444 46.0152 27.9458L46.0309 27.9462C47.1662 28.0055 48.1728 28.5678 48.8451 29.4209C45.6437 29.9823 43.2366 32.8499 43.2366 36.2589V42.2558H36.0138C32.2571 42.2558 29.2565 45.3871 29.2565 49.1932V49.3655C28.5048 48.6784 28.0135 47.6952 27.9551 46.5933C27.9512 46.5199 27.9492 46.4459 27.9492 46.3715V31.9409Z" fill="white"/>
<path fill-rule="evenodd" clip-rule="evenodd" d="M67.8682 36.2593V46.5741H56.2657C55.5844 44.861 54.2546 43.4838 52.5809 42.7759C51.7893 42.4411 50.9207 42.2561 50.0076 42.2561H49.7042H46.1055V36.2593C46.1055 34.1481 47.6926 32.419 49.7042 32.2702C49.7973 32.2633 49.8913 32.2598 49.9861 32.2598H52.5809H63.9877C64.0493 32.2598 64.1106 32.2613 64.1715 32.2642C64.1767 32.2644 64.1819 32.2643 64.1871 32.2645C66.2376 32.3715 67.8682 34.1194 67.8682 36.2593Z" fill="white"/>
<path fill-rule="evenodd" clip-rule="evenodd" d="M56.7734 54.6892V49.5117H68.1793C68.2408 49.5117 68.3022 49.5133 68.363 49.5161L68.3787 49.5165C69.2881 49.564 70.115 49.9343 70.7535 50.5182C71.5549 51.2509 72.0597 52.3203 72.0597 53.5112V67.9419C72.0597 68.006 72.0584 68.0696 72.0555 68.1329L72.0552 68.1474C71.9513 70.2608 70.2555 71.9414 68.1793 71.9415H54.1776C54.1161 71.9415 54.0547 71.9397 53.9939 71.9369L53.9782 71.9365C52.843 71.8773 51.8364 71.315 51.1641 70.4619C54.3659 69.9009 56.7734 67.033 56.7734 63.6238V57.6269V54.6892Z" fill="white"/>
<path d="M50.0071 45.1934H36.0056C33.8624 45.1934 32.125 46.984 32.125 49.1929V50.3706V53.3086V63.6236C32.125 65.8325 33.8624 67.6231 36.0056 67.6231L47.4114 67.6232L50.0071 67.6231C50.1016 67.6231 50.1953 67.6197 50.2882 67.6129C52.1686 67.4742 53.6783 65.9545 53.8677 64.0326C53.8809 63.8982 53.8877 63.7617 53.8877 63.6236L53.8877 57.6265V54.6888V49.5216L53.8877 49.1929C53.8877 48.2376 53.5628 47.3605 53.0206 46.6727C52.8866 46.5028 52.7394 46.3445 52.5805 46.1993C51.9886 45.6584 51.235 45.301 50.4039 45.214C50.3386 45.2072 50.2729 45.2016 50.2067 45.1981C50.2014 45.1979 50.1961 45.198 50.1908 45.1978C50.1299 45.1949 50.0687 45.1934 50.0071 45.1934Z" fill="white"/>
</svg>
