<svg width="100" height="100" viewBox="0 0 100 100" fill="none" xmlns="http://www.w3.org/2000/svg">
<path d="M50 100C77.6142 100 100 77.6142 100 50C100 22.3858 77.6142 0 50 0C22.3858 0 0 22.3858 0 50C0 77.6142 22.3858 100 50 100Z" fill="#0D64FF"/>
<path fill-rule="evenodd" clip-rule="evenodd" d="M24.332 29.0095C24.332 26.4386 26.3542 24.3545 28.8486 24.3545H45.1449C45.1804 24.3545 45.2159 24.3549 45.2513 24.3557C45.2873 24.3566 45.3232 24.358 45.3589 24.3596L45.3772 24.3601C46.6986 24.4291 47.8701 25.0836 48.6526 26.0765C44.9265 26.7299 42.1249 30.0675 42.1249 34.0351V41.0149H33.7184C29.3459 41.0149 25.8536 44.6594 25.8536 49.0893V49.2898C24.9786 48.4902 24.4068 47.3458 24.3388 46.0633C24.3343 45.9779 24.332 45.8918 24.332 45.8051V29.0095Z" fill="white"/>
<path fill-rule="evenodd" clip-rule="evenodd" d="M70.7982 34.0349V46.0403H57.2942C56.5013 44.0464 54.9534 42.4434 53.0055 41.6196C52.0841 41.2298 51.0732 41.0146 50.0104 41.0146H49.6573H45.4688V34.0349C45.4688 31.5777 47.316 29.5652 49.6573 29.392C49.7656 29.384 49.875 29.3799 49.9854 29.3799H53.0055H66.2817C66.3534 29.3799 66.4247 29.3816 66.4956 29.385C66.5017 29.3853 66.5078 29.3851 66.5139 29.3854C68.9004 29.51 70.7982 31.5443 70.7982 34.0349Z" fill="white"/>
<path fill-rule="evenodd" clip-rule="evenodd" d="M57.8764 55.486V49.46H71.1515C71.2232 49.46 71.2946 49.4618 71.3654 49.4651L71.3837 49.4655C72.4421 49.5208 73.4045 49.9518 74.1477 50.6314C75.0804 51.4841 75.668 52.7289 75.668 54.115V70.9107C75.668 70.9853 75.6665 71.0593 75.6631 71.1331L75.6627 71.1499C75.5418 73.6097 73.568 75.5657 71.1515 75.5658H54.8551C54.7835 75.5658 54.7121 75.5638 54.6412 75.5604L54.623 75.56C53.3017 75.4911 52.1302 74.8366 51.3477 73.8437C55.0742 73.1908 57.8764 69.8528 57.8764 65.8849V58.9052V55.486Z" fill="white"/>
<path d="M50.0121 44.4336H33.7159C31.2214 44.4336 29.1992 46.5177 29.1992 49.0886V50.4594V53.8788V65.8844C29.1992 68.4553 31.2214 70.5394 33.7159 70.5394L46.991 70.5395L50.0121 70.5394C50.1221 70.5394 50.2312 70.5355 50.3392 70.5275C52.5278 70.3661 54.2849 68.5973 54.5054 66.3605C54.5208 66.204 54.5287 66.0451 54.5287 65.8844L54.5287 58.9045V55.4853V49.4712L54.5287 49.0886C54.5287 47.9768 54.1505 46.956 53.5194 46.1554C53.3635 45.9577 53.1922 45.7734 53.0073 45.6044C52.3183 44.9748 51.4412 44.5589 50.4739 44.4577C50.3979 44.4497 50.3214 44.4432 50.2444 44.4392C50.2382 44.4388 50.232 44.439 50.2258 44.4387C50.155 44.4353 50.0837 44.4336 50.0121 44.4336Z" fill="white"/>
</svg>
