<svg width="24" height="24" viewBox="0 0 24 24" fill="none" xmlns="http://www.w3.org/2000/svg">
<path d="M15 9.5H18.5" stroke="#1F66FF" stroke-width="1.5" stroke-linecap="round" stroke-linejoin="round"/>
<path d="M15 12H18.5" stroke="#1F66FF" stroke-width="1.5" stroke-linecap="round" stroke-linejoin="round"/>
<path d="M15 14.5H17" stroke="#1F66FF" stroke-width="1.5" stroke-linecap="round" stroke-linejoin="round"/>
<path d="M1 5C1 4.44772 1.44772 4 2 4H22C22.5523 4 23 4.44772 23 5V19C23 19.5523 22.5523 20 22 20H2C1.44772 20 1 19.5523 1 19V5Z" stroke="#1F66FF" stroke-width="1.5"/>
<path d="M10.5 10C10.5 11.1046 9.60457 12 8.5 12C7.39543 12 6.5 11.1046 6.5 10C6.5 8.89543 7.39543 8 8.5 8C9.60457 8 10.5 8.89543 10.5 10Z" stroke="#1F66FF" stroke-width="1.5"/>
<path d="M12.5 16C12.5 13.7909 10.7091 12 8.5 12C6.29086 12 4.5 13.7909 4.5 16" stroke="#1F66FF" stroke-width="1.5" stroke-linecap="round"/>
</svg>
