<svg width="24" height="24" viewBox="0 0 24 24" fill="none" xmlns="http://www.w3.org/2000/svg">
<path d="M17 12V4C17 3.44772 16.5523 3 16 3H4C3.44772 3 3 3.44772 3 4V16.5L6.20711 13.2929C6.39464 13.1054 6.649 13 6.91421 13H16C16.5523 13 17 12.5523 17 12Z" stroke="#1F66FF" stroke-width="1.5" stroke-linecap="round" stroke-linejoin="round"/>
<path d="M9 13V16.5C9 17.0523 9.44772 17.5 10 17.5H17.0858C17.351 17.5 17.6054 17.6054 17.7929 17.7929L21 21V9C21 8.44772 20.5523 8 20 8H17" stroke="#1F66FF" stroke-width="1.5" stroke-linecap="round" stroke-linejoin="round"/>
</svg>
