<svg width="24" height="24" viewBox="0 0 24 24" fill="none" xmlns="http://www.w3.org/2000/svg">
<path d="M1 8C1 7.44772 1.44772 7 2 7H9.5C10.0523 7 10.5 7.44772 10.5 8V15.5C10.5 16.0523 10.0523 16.5 9.5 16.5H2C1.44772 16.5 1 16.0523 1 15.5V8Z" stroke="#1F66FF" stroke-width="1.5" stroke-linejoin="round"/>
<path d="M13.5 8C13.5 7.44772 13.9477 7 14.5 7H22C22.5523 7 23 7.44772 23 8V15.5C23 16.0523 22.5523 16.5 22 16.5H14.5C13.9477 16.5 13.5 16.0523 13.5 15.5V8Z" stroke="#1F66FF" stroke-width="1.5" stroke-linejoin="round"/>
<path d="M6.5 9.75L4.5 11.75L6.5 13.75" stroke="#1F66FF" stroke-width="1.5" stroke-linecap="round" stroke-linejoin="round"/>
<path d="M17.5 9.75L19.5 11.75L17.5 13.75" stroke="#1F66FF" stroke-width="1.5" stroke-linecap="round" stroke-linejoin="round"/>
</svg>
