<svg width="24" height="24" viewBox="0 0 24 24" fill="none" xmlns="http://www.w3.org/2000/svg">
<path d="M5 20C5 20.5523 4.55228 21 4 21C3.44772 21 3 20.5523 3 20C3 19.4477 3.44772 19 4 19C4.55228 19 5 19.4477 5 20Z" stroke="#1F66FF"/>
<path d="M5 16C5 16.5523 4.55228 17 4 17C3.44772 17 3 16.5523 3 16C3 15.4477 3.44772 15 4 15C4.55228 15 5 15.4477 5 16Z" stroke="#1F66FF"/>
<path d="M14 16C14 16.5523 13.5523 17 13 17C12.4477 17 12 16.5523 12 16C12 15.4477 12.4477 15 13 15C13.5523 15 14 15.4477 14 16Z" stroke="#1F66FF"/>
<path d="M16 20C16 20.5523 15.5523 21 15 21C14.4477 21 14 20.5523 14 20C14 19.4477 14.4477 19 15 19C15.5523 19 16 19.4477 16 20Z" stroke="#1F66FF"/>
<path d="M7 16H9.5" stroke="#1F66FF" stroke-linecap="round" stroke-linejoin="round"/>
<path d="M7 20H11.5" stroke="#1F66FF" stroke-linecap="round" stroke-linejoin="round"/>
<path d="M16 16H20" stroke="#1F66FF" stroke-linecap="round" stroke-linejoin="round"/>
<path d="M18 20H21" stroke="#1F66FF" stroke-linecap="round" stroke-linejoin="round"/>
<path d="M3 4C3 3.44772 3.44772 3 4 3H20C20.5523 3 21 3.44772 21 4V11C21 11.5523 20.5523 12 20 12H4C3.44772 12 3 11.5523 3 11V4Z" stroke="#1F66FF" stroke-width="1.5"/>
<path d="M5.5 9.5L8.64286 7.5L11.7857 9.5L14.1429 8.16667L16.5 9.5" stroke="#1F66FF" stroke-linecap="round" stroke-linejoin="round"/>
</svg>
