<svg width="24" height="24" viewBox="0 0 24 24" fill="none" xmlns="http://www.w3.org/2000/svg">
<path d="M7.12132 14.1213C5.94975 15.2929 4.05025 15.2929 2.87868 14.1213C1.70711 12.9497 1.70711 11.0503 2.87868 9.87868C4.05025 8.70711 5.94975 8.70711 7.12132 9.87868C8.29289 11.0503 8.29289 12.9497 7.12132 14.1213Z" stroke="#1F66FF" stroke-width="1.5"/>
<path d="M17.3349 5.75016C18.0252 6.9459 19.5542 7.35558 20.7499 6.66523C21.9457 5.97487 22.3553 4.4459 21.665 3.25016C20.9746 2.05443 19.4457 1.64474 18.2499 2.3351C17.0542 3.02546 16.6445 4.55443 17.3349 5.75016ZM17.3349 5.75016L7.49991 10.5001" stroke="#1F66FF" stroke-width="1.5"/>
<path d="M17.3349 18.2499C16.6445 19.4456 17.0542 20.9746 18.2499 21.665C19.4457 22.3553 20.9746 21.9456 21.665 20.7499C22.3554 19.5542 21.9457 18.0252 20.7499 17.3348C19.5542 16.6445 18.0252 17.0542 17.3349 18.2499ZM17.3349 18.2499L7.49994 13.4999" stroke="#1F66FF" stroke-width="1.5"/>
</svg>
