<svg xmlns="http://www.w3.org/2000/svg" width="654" height="100" fill="#d4d7e1">
    <rect width="94" height="40" rx="2" />
    <rect x="112" width="46" height="40" rx="2" />
    <rect x="160" width="46" height="40" rx="2" />
    <rect x="224" width="62" height="40" rx="2" />
    <rect x="288" width="30" height="40" rx="2" />
    <rect x="336" width="30" height="40" rx="2" />
    <rect x="368" width="62" height="40" rx="2" />
    <rect x="448" width="30" height="40" rx="2" />
    <rect x="480" width="30" height="40" rx="2" />
    <rect x="512" width="30" height="40" rx="2" />
    <rect x="560" width="22" height="40" rx="2" />
    <rect x="584" width="22" height="40" rx="2" />
    <rect x="608" width="46" height="40" rx="2" />
    <rect x="112" y="60" width="46" height="40" rx="2" />
    <rect x="160" y="60" width="22" height="40" rx="2" />
    <rect x="184" y="60" width="22" height="40" rx="2" />
    <rect x="224" y="60" width="22" height="40" rx="2" />
    <rect x="248" y="60" width="22" height="40" rx="2" />
    <rect x="272" y="60" width="22" height="40" rx="2" />
    <rect x="296" y="60" width="22" height="40" rx="2" />
    <rect x="336" y="60" width="17.2" height="40" rx="2" />
    <rect x="355.2" y="60" width="17.2" height="40" rx="2" />
    <rect x="374.4" y="60" width="17.2" height="40" rx="2" />
    <rect x="393.6" y="60" width="17.2" height="40" rx="2" />
    <rect x="412.8" y="60" width="17.2" height="40" rx="2" />
    <rect x="448" y="60" width="14" height="40" rx="2" />
    <rect x="464" y="60" width="14" height="40" rx="2" />
    <rect x="480" y="60" width="14" height="40" rx="2" />
    <rect x="496" y="60" width="14" height="40" rx="2" />
    <rect x="512" y="60" width="14" height="40" rx="2" />
    <rect x="528" y="60" width="14" height="40" rx="2" />
</svg>