<svg width="120" height="72" viewBox="0 0 120 72" fill="none" xmlns="http://www.w3.org/2000/svg">
<rect width="58" height="51" rx="2" fill="#D9D9D9"/>
<rect y="55" width="4" height="4" rx="2" fill="#A0A0A0"/>
<rect x="62" y="55" width="4" height="4" rx="2" fill="#A0A0A0"/>
<rect x="7" y="55" width="4" height="4" rx="2" fill="#A0A0A0"/>
<rect x="69" y="55" width="4" height="4" rx="2" fill="#A0A0A0"/>
<rect x="14" y="55" width="4" height="4" rx="2" fill="#A0A0A0"/>
<rect x="76" y="55" width="4" height="4" rx="2" fill="#A0A0A0"/>
<rect y="63" width="58" height="3" rx="1.5" fill="#A0A0A0"/>
<rect x="62" y="63" width="58" height="3" rx="1.5" fill="#A0A0A0"/>
<rect y="69" width="39" height="3" rx="1.5" fill="#A0A0A0"/>
<rect x="62" y="69" width="51" height="3" rx="1.5" fill="#A0A0A0"/>
<rect x="62" width="58" height="51" rx="2" fill="#D9D9D9"/>
<path fill-rule="evenodd" clip-rule="evenodd" d="M35.0745 19.0071C31.9978 18.6077 26.2989 18.6091 23.0734 19.0094C21.5114 19.2033 20.4119 20.5448 20.231 22.2021C19.9787 24.5129 19.9787 27.4872 20.231 29.798C20.4119 31.4553 21.5114 32.7968 23.0734 32.9906C26.2988 33.391 31.9978 33.3924 35.0745 32.993C36.561 32.8001 37.5698 31.5182 37.75 29.9686C38.0279 27.5784 38.0279 24.4217 37.75 22.0315C37.5698 20.4819 36.561 19.2 35.0745 19.0071ZM27.655 22.9641C27.4619 22.8483 27.2214 22.8452 27.0255 22.9562C26.8295 23.0671 26.7084 23.2749 26.7084 23.5V28.5C26.7084 28.7252 26.8295 28.933 27.0255 29.0439C27.2214 29.1549 27.4619 29.1518 27.655 29.036L31.8216 26.536C32.0099 26.423 32.1251 26.2196 32.1251 26C32.1251 25.7805 32.0099 25.5771 31.8216 25.4641L27.655 22.9641Z" fill="#A0A0A0"/>
<path fill-rule="evenodd" clip-rule="evenodd" d="M97.0745 19.0071C93.9978 18.6077 88.2989 18.6091 85.0734 19.0094C83.5114 19.2033 82.4119 20.5448 82.231 22.2021C81.9787 24.5129 81.9787 27.4872 82.231 29.798C82.4119 31.4553 83.5114 32.7968 85.0734 32.9906C88.2988 33.391 93.9978 33.3924 97.0745 32.993C98.561 32.8001 99.5698 31.5182 99.75 29.9686C100.028 27.5784 100.028 24.4217 99.75 22.0315C99.5698 20.4819 98.561 19.2 97.0745 19.0071ZM89.655 22.9641C89.4619 22.8483 89.2214 22.8452 89.0255 22.9562C88.8295 23.0671 88.7084 23.2749 88.7084 23.5V28.5C88.7084 28.7252 88.8295 28.933 89.0255 29.0439C89.2214 29.1549 89.4619 29.1518 89.655 29.036L93.8216 26.536C94.0099 26.423 94.1251 26.2196 94.1251 26C94.1251 25.7805 94.0099 25.5771 93.8216 25.4641L89.655 22.9641Z" fill="#A0A0A0"/>
</svg>
