<svg width="100" height="100" viewBox="0 0 100 100" fill="none" xmlns="http://www.w3.org/2000/svg">
<g clip-path="url(#clip0_33_8619)">
<path d="M100 0H0V100H100V0Z" fill="none"/>
<path d="M60.2797 79.4648C60.1602 79.4655 60.1 79.4064 60.0992 79.2875L59.9907 54.78C59.99 54.6849 60.0375 54.637 60.133 54.6365L71.604 54.5733C71.7235 54.5727 71.7836 54.6199 71.7843 54.715L71.8139 58.746C71.8146 58.8412 71.7672 58.889 71.6716 58.8895L64.323 58.93L64.3636 64.4592L71.7122 64.4188C71.8078 64.4183 71.856 64.4775 71.8569 64.5964L71.9224 68.6272C71.9231 68.7223 71.8637 68.7702 71.7442 68.7708L64.3956 68.8113L64.4725 79.2634C64.4733 79.3823 64.414 79.4421 64.2945 79.4427L60.2797 79.4648Z" fill="#03ABFF"/>
<path d="M44.8422 79.5498C44.7227 79.5505 44.6625 79.4913 44.6617 79.3724L44.5532 54.8649C44.5525 54.7698 44.6 54.722 44.6955 54.7215L56.1665 54.6583C56.286 54.6576 56.3461 54.7049 56.3468 54.8L56.3764 58.831C56.3771 58.9261 56.3297 58.974 56.2341 58.9745L48.8855 59.015L48.9261 64.5442L56.2747 64.5037C56.3703 64.5032 56.4185 64.5624 56.4194 64.6813L56.4849 68.7121C56.4856 68.8072 56.4262 68.8551 56.3067 68.8558L48.9581 68.8963L49.035 79.3483C49.0358 79.4672 48.9765 79.527 48.857 79.5277L44.8422 79.5498Z" fill="#03ABFF"/>
<path d="M34.9139 79.9612C33.6234 79.9683 32.4381 79.6538 31.358 79.0176C30.3016 78.3575 29.4468 77.4941 28.7937 76.4275C28.1404 75.3371 27.809 74.1379 27.7994 72.8299L27.7521 61.5215C27.7425 60.2135 28.0444 59.0227 28.6579 57.9491C29.2953 56.8754 30.1493 56.0145 31.22 55.3665C32.2906 54.7184 33.4593 54.3909 34.7259 54.384C36.0163 54.3769 37.1897 54.6915 38.2459 55.3278C39.3021 55.9641 40.1449 56.8156 40.7741 57.8824C41.4272 58.949 41.7585 60.1363 41.7682 61.4443L41.8871 72.7523C41.8967 74.0603 41.583 75.2631 40.9458 76.3606C40.3323 77.4342 39.4903 78.3069 38.4198 78.9787C37.373 79.6266 36.2044 79.9541 34.9139 79.9612ZM34.8822 75.6448C35.5991 75.6409 36.2183 75.3521 36.7399 74.7784C37.2852 74.1809 37.5551 73.5135 37.5497 72.7762L37.4307 61.4682C37.4249 60.6834 37.1691 60.0189 36.6632 59.4747C36.1574 58.9305 35.5221 58.6605 34.7573 58.6647C34.0165 58.6688 33.3852 58.9457 32.8635 59.4956C32.3416 60.0217 32.0836 60.689 32.0895 61.4976L32.1727 72.8058C32.1784 73.5906 32.4463 74.267 32.9762 74.8348C33.506 75.3789 34.1413 75.6489 34.8822 75.6448Z" fill="#03ABFF"/>
<path d="M58.5104 31.9805C57.674 31.9851 56.8957 31.7753 56.1756 31.3512C55.4794 30.9269 54.9136 30.3593 54.4782 29.6482C54.0667 28.937 53.8579 28.1652 53.8518 27.3328L53.8332 24.8001C53.8269 23.9439 54.0242 23.158 54.4253 22.4423C54.8502 21.7265 55.4077 21.1645 56.0977 20.7564C56.8115 20.3244 57.5866 20.1061 58.4231 20.1015C59.2834 20.0968 60.0616 20.3065 60.7578 20.7308C61.4538 21.1312 62.0076 21.6871 62.4191 22.3983C62.8306 23.1095 63.0395 23.8932 63.0458 24.7493L63.0644 27.2821C63.0707 28.1382 62.8614 28.9242 62.4365 29.64C62.0353 30.3319 61.4897 30.8938 60.7998 31.3257C60.11 31.7576 59.3468 31.9759 58.5104 31.9805ZM56.0272 45.3006C55.9077 45.3012 55.8715 45.242 55.9184 45.1228L70.0411 20.5369C70.1121 20.4414 70.1834 20.3935 70.2551 20.3931L74.4133 20.3702C74.5328 20.3695 74.569 20.4169 74.5219 20.5123L60.4351 45.0979C60.3881 45.2171 60.3169 45.2769 60.2213 45.2775L56.0272 45.3006ZM58.4174 29.0914C58.8954 29.0887 59.2885 28.9201 59.5967 28.5854C59.9048 28.227 60.0569 27.7981 60.0533 27.2987L60.0352 24.8373C60.0317 24.3616 59.8734 23.9582 59.5603 23.627C59.247 23.2719 58.8513 23.0957 58.3734 23.0984C57.8954 23.101 57.4905 23.2816 57.1585 23.6402C56.8503 23.9748 56.6979 24.38 56.7014 24.8556L56.7195 27.317C56.723 27.7927 56.8934 28.2079 57.2306 28.5628C57.5678 28.9177 57.9634 29.0939 58.4174 29.0914ZM72.4118 45.5671C71.5754 45.5717 70.7971 45.3619 70.077 44.9378C69.3809 44.5135 68.8151 43.9459 68.3797 43.2348C67.9681 42.5236 67.7593 41.7518 67.7532 40.9194L67.7346 38.3867C67.7283 37.5305 67.9257 36.7446 68.3267 36.0289C68.7516 35.3131 69.3091 34.7511 69.9992 34.343C70.7129 33.911 71.488 33.6927 72.3245 33.6881C73.1848 33.6834 73.963 33.8931 74.6592 34.3174C75.3552 34.7178 75.909 35.2737 76.3205 35.9849C76.732 36.6961 76.9409 37.4798 76.9472 38.3359L76.9658 40.8687C76.9721 41.7248 76.7628 42.5108 76.3379 43.2266C75.9367 43.9185 75.3911 44.4804 74.7013 44.9123C74.0114 45.3442 73.2482 45.5625 72.4118 45.5671ZM72.3547 42.6778C72.8327 42.6752 73.2257 42.5065 73.534 42.1719C73.842 41.8134 73.9942 41.3845 73.9905 40.8851L73.9725 38.4237C73.969 37.948 73.8106 37.5446 73.4975 37.2134C73.1842 36.8584 72.7886 36.6822 72.3106 36.6848C71.8327 36.6874 71.4277 36.868 71.0958 37.2266C70.7876 37.5612 70.6352 37.9664 70.6387 38.442L70.6568 40.9034C70.6603 41.3791 70.8306 41.7943 71.1678 42.1492C71.505 42.5041 71.9006 42.6803 72.3547 42.6778Z" fill="#03ABFF"/>
<path d="M45.7548 45.7143C44.4882 45.7213 43.3148 45.4067 42.2347 44.7705C41.1546 44.1343 40.288 43.2948 39.6351 42.252C38.982 41.1853 38.6509 40.0337 38.6418 38.7971L38.6339 37.7269C38.6332 37.6318 38.6926 37.5839 38.8121 37.5832L42.8628 37.5609C42.9584 37.5604 43.0065 37.6077 43.0072 37.7028L43.0133 38.5233C43.0192 39.3318 43.2871 40.0082 43.8169 40.5523C44.3466 41.0963 44.9819 41.3663 45.7228 41.3623C46.4636 41.3582 47.0829 41.0813 47.5808 40.5315C48.1023 39.9579 48.3602 39.2787 48.3544 38.4939L48.3366 36.0681C48.3312 35.3309 48.0518 34.7141 47.4985 34.2177C46.9691 33.7212 46.31 33.4751 45.5214 33.4794C44.4938 33.4851 43.6484 33.894 42.9852 34.7063L42.9143 34.8137L39.0766 34.5495C38.9571 34.5501 38.8969 34.491 38.8961 34.3721L39.2544 24.5954L39.4409 20.7059C39.4402 20.6108 39.4876 20.563 39.5832 20.5624L51.6277 20.4961C51.7233 20.4956 51.7714 20.5429 51.7721 20.638L51.8007 24.5263C51.8016 24.6452 51.7542 24.705 51.6587 24.7055L43.2705 24.7517L43.1275 29.6755C43.4132 29.5312 43.7827 29.4103 44.2361 29.3126C44.7134 29.2149 45.1432 29.1649 45.5255 29.1628C46.816 29.1557 48.0013 29.4703 49.0814 30.1065C50.1853 30.7187 51.0637 31.5463 51.7166 32.5891C52.3695 33.632 52.7006 34.7836 52.7099 36.044L52.7277 38.4698C52.7374 39.7778 52.4236 40.9805 51.7864 42.078C51.1731 43.1754 50.3312 44.06 49.2606 44.7318C48.2139 45.3797 47.0452 45.7072 45.7548 45.7143Z" fill="#03ABFF"/>
<path d="M30.2469 45.7993C28.9804 45.8063 27.807 45.4917 26.7269 44.8555C25.6468 44.2193 24.7802 43.3798 24.1273 42.3369C23.4742 41.2703 23.1431 40.1187 23.134 38.882L23.1261 37.8118C23.1254 37.7167 23.1848 37.6688 23.3043 37.6682L27.355 37.6459C27.4506 37.6453 27.4987 37.6926 27.4994 37.7878L27.5055 38.6082C27.5114 39.4168 27.7793 40.0931 28.309 40.6372C28.8388 41.1813 29.4741 41.4513 30.2149 41.4472C30.9558 41.4432 31.5751 41.1662 32.0729 40.6165C32.5945 40.0428 32.8524 39.3636 32.8466 38.5788L32.8288 36.1531C32.8234 35.4158 32.544 34.799 31.9907 34.3026C31.4613 33.8061 30.8022 33.56 30.0136 33.5644C28.986 33.57 28.1406 33.979 27.4774 34.7913L27.4065 34.8987L23.5688 34.6344C23.4493 34.6351 23.3891 34.5759 23.3883 34.457L23.7466 24.6804L23.9331 20.7909C23.9324 20.6958 23.9798 20.6479 24.0754 20.6474L36.1199 20.5811C36.2155 20.5805 36.2636 20.6278 36.2643 20.723L36.2929 24.6113C36.2938 24.7302 36.2464 24.7899 36.1508 24.7904L27.7627 24.8366L27.6197 29.7604C27.9054 29.6162 28.2749 29.4952 28.7283 29.3976C29.2055 29.2998 29.6354 29.2499 30.0177 29.2478C31.3082 29.2407 32.4935 29.5552 33.5736 30.1914C34.6775 30.8037 35.5559 31.6312 36.2088 32.6741C36.8617 33.7169 37.1928 34.8686 37.2021 36.129L37.2199 38.5547C37.2295 39.8627 36.9157 41.0655 36.2785 42.163C35.6652 43.2604 34.8233 44.145 33.7528 44.8168C32.7061 45.4647 31.5374 45.7922 30.2469 45.7993Z" fill="#03ABFF"/>
</g>
<defs>
<clipPath id="clip0_33_8619">
<rect width="100" height="100" fill="none"/>
</clipPath>
</defs>
</svg>
