<svg width="52" height="40" viewBox="0 0 52 40" fill="none" xmlns="http://www.w3.org/2000/svg">
<rect width="52" height="19" rx="1" fill="#C1C5CC"/>
<rect y="25" width="16" height="12" rx="1" fill="#C1C5CC"/>
<rect x="18" y="25" width="16" height="12" rx="1" fill="#C1C5CC"/>
<rect x="36" y="25" width="16" height="12" rx="1" fill="#C1C5CC"/>
<g clip-path="url(#clip0_3433_1187)">
<path fill-rule="evenodd" clip-rule="evenodd" d="M28.9299 6.20285C27.6992 6.04311 25.4196 6.04368 24.1294 6.2038C23.5046 6.28134 23.0648 6.81794 22.9924 7.48085C22.8915 8.40518 22.8915 9.5949 22.9924 10.5192C23.0648 11.1821 23.5046 11.7187 24.1294 11.7963C25.4196 11.9564 27.6992 11.957 28.9299 11.7972C29.5244 11.72 29.928 11.2073 30 10.5875C30.1112 9.63138 30.1112 8.3687 30 7.41261C29.928 6.79277 29.5244 6.28003 28.9299 6.20285ZM25.962 7.78567C25.8848 7.73933 25.7886 7.73811 25.7102 7.78249C25.6319 7.82687 25.5834 7.90997 25.5834 8.00004V10C25.5834 10.0901 25.6319 10.1732 25.7102 10.2176C25.7886 10.262 25.8848 10.2608 25.962 10.2144L27.6287 9.21441C27.704 9.16923 27.7501 9.08786 27.7501 9.00004C27.7501 8.91222 27.704 8.83085 27.6287 8.78567L25.962 7.78567Z" fill="white"/>
</g>
<path fill-rule="evenodd" clip-rule="evenodd" d="M10.4299 28.2029C9.19916 28.0431 6.91959 28.0437 5.62942 28.2038C5.00462 28.2813 4.56482 28.8179 4.49244 29.4808C4.39152 30.4052 4.39152 31.5949 4.49244 32.5192C4.56482 33.1821 5.00462 33.7187 5.62942 33.7963C6.91959 33.9564 9.19915 33.957 10.4299 33.7972C11.0244 33.72 11.428 33.2073 11.5 32.5875C11.6112 31.6314 11.6112 30.3687 11.5 29.4126C11.428 28.7928 11.0244 28.28 10.4299 28.2029ZM7.46204 29.7857C7.38481 29.7393 7.28862 29.7381 7.21024 29.7825C7.13186 29.8269 7.08341 29.91 7.08341 30V32C7.08341 32.0901 7.13186 32.1732 7.21024 32.2176C7.28862 32.262 7.38481 32.2608 7.46204 32.2144L9.12871 31.2144C9.20401 31.1692 9.25008 31.0879 9.25008 31C9.25008 30.9122 9.20401 30.8308 9.12871 30.7857L7.46204 29.7857Z" fill="white"/>
<path fill-rule="evenodd" clip-rule="evenodd" d="M28.4299 28.2029C27.1992 28.0431 24.9196 28.0437 23.6294 28.2038C23.0046 28.2813 22.5648 28.8179 22.4924 29.4808C22.3915 30.4052 22.3915 31.5949 22.4924 32.5192C22.5648 33.1821 23.0046 33.7187 23.6294 33.7963C24.9196 33.9564 27.1992 33.957 28.4299 33.7972C29.0244 33.72 29.428 33.2073 29.5 32.5875C29.6112 31.6314 29.6112 30.3687 29.5 29.4126C29.428 28.7928 29.0244 28.28 28.4299 28.2029ZM25.462 29.7857C25.3848 29.7393 25.2886 29.7381 25.2102 29.7825C25.1319 29.8269 25.0834 29.91 25.0834 30V32C25.0834 32.0901 25.1319 32.1732 25.2102 32.2176C25.2886 32.262 25.3848 32.2608 25.462 32.2144L27.1287 31.2144C27.204 31.1692 27.2501 31.0879 27.2501 31C27.2501 30.9122 27.204 30.8308 27.1287 30.7857L25.462 29.7857Z" fill="white"/>
<path fill-rule="evenodd" clip-rule="evenodd" d="M46.4299 28.2029C45.1992 28.0431 42.9196 28.0437 41.6294 28.2038C41.0046 28.2813 40.5648 28.8179 40.4924 29.4808C40.3915 30.4052 40.3915 31.5949 40.4924 32.5192C40.5648 33.1821 41.0046 33.7187 41.6294 33.7963C42.9196 33.9564 45.1992 33.957 46.4299 33.7972C47.0244 33.72 47.428 33.2073 47.5 32.5875C47.6112 31.6314 47.6112 30.3687 47.5 29.4126C47.428 28.7928 47.0244 28.28 46.4299 28.2029ZM43.462 29.7857C43.3848 29.7393 43.2886 29.7381 43.2102 29.7825C43.1319 29.8269 43.0834 29.91 43.0834 30V32C43.0834 32.0901 43.1319 32.1732 43.2102 32.2176C43.2886 32.262 43.3848 32.2608 43.462 32.2144L45.1287 31.2144C45.204 31.1692 45.2501 31.0879 45.2501 31C45.2501 30.9122 45.204 30.8308 45.1287 30.7857L43.462 29.7857Z" fill="white"/>
<rect y="21" width="36" height="1" rx="0.5" fill="#9BA2AB"/>
<rect y="39" width="12" height="1" rx="0.5" fill="#9BA2AB"/>
<rect x="18" y="39" width="12" height="1" rx="0.5" fill="#9BA2AB"/>
<rect x="36" y="39" width="12" height="1" rx="0.5" fill="#9BA2AB"/>
<defs>
<clipPath id="clip0_3433_1187">
<rect width="8" height="8" fill="white" transform="translate(22.5 5)"/>
</clipPath>
</defs>
</svg>
