<svg width="52" height="40" viewBox="0 0 52 40" fill="none" xmlns="http://www.w3.org/2000/svg">
<rect y="21" width="16" height="14" rx="1" fill="#C1C5CC"/>
<rect width="16" height="14" rx="1" fill="#C1C5CC"/>
<rect x="18" y="21" width="16" height="14" rx="1" fill="#C1C5CC"/>
<rect x="18" width="16" height="14" rx="1" fill="#C1C5CC"/>
<rect x="36" y="21" width="16" height="14" rx="1" fill="#C1C5CC"/>
<rect x="36" width="16" height="14" rx="1" fill="#C1C5CC"/>
<path fill-rule="evenodd" clip-rule="evenodd" d="M10.4299 25.2029C9.19916 25.0431 6.91959 25.0437 5.62942 25.2038C5.00462 25.2813 4.56482 25.8179 4.49244 26.4808C4.39152 27.4052 4.39152 28.5949 4.49244 29.5192C4.56482 30.1821 5.00462 30.7187 5.62942 30.7963C6.91959 30.9564 9.19915 30.957 10.4299 30.7972C11.0244 30.72 11.428 30.2073 11.5 29.5875C11.6112 28.6314 11.6112 27.3687 11.5 26.4126C11.428 25.7928 11.0244 25.28 10.4299 25.2029ZM7.46204 26.7857C7.38481 26.7393 7.28862 26.7381 7.21024 26.7825C7.13186 26.8269 7.08341 26.91 7.08341 27V29C7.08341 29.0901 7.13186 29.1732 7.21024 29.2176C7.28862 29.262 7.38481 29.2608 7.46204 29.2144L9.12871 28.2144C9.20401 28.1692 9.25008 28.0879 9.25008 28C9.25008 27.9122 9.20401 27.8308 9.12871 27.7857L7.46204 26.7857Z" fill="white"/>
<path fill-rule="evenodd" clip-rule="evenodd" d="M10.4299 4.20285C9.19916 4.04311 6.91959 4.04368 5.62942 4.2038C5.00462 4.28134 4.56482 4.81794 4.49244 5.48085C4.39152 6.40518 4.39152 7.5949 4.49244 8.51924C4.56482 9.18215 5.00462 9.71874 5.62942 9.79628C6.91959 9.9564 9.19915 9.95698 10.4299 9.79723C11.0244 9.72005 11.428 9.20731 11.5 8.58747C11.6112 7.63138 11.6112 6.3687 11.5 5.41261C11.428 4.79277 11.0244 4.28003 10.4299 4.20285ZM7.46204 5.78567C7.38481 5.73933 7.28862 5.73811 7.21024 5.78249C7.13186 5.82687 7.08341 5.90997 7.08341 6.00004V8.00004C7.08341 8.09011 7.13186 8.17321 7.21024 8.21759C7.28862 8.26197 7.38481 8.26075 7.46204 8.21441L9.12871 7.21441C9.20401 7.16923 9.25008 7.08786 9.25008 7.00004C9.25008 6.91222 9.20401 6.83085 9.12871 6.78567L7.46204 5.78567Z" fill="white"/>
<path fill-rule="evenodd" clip-rule="evenodd" d="M28.4299 25.2029C27.1992 25.0431 24.9196 25.0437 23.6294 25.2038C23.0046 25.2813 22.5648 25.8179 22.4924 26.4808C22.3915 27.4052 22.3915 28.5949 22.4924 29.5192C22.5648 30.1821 23.0046 30.7187 23.6294 30.7963C24.9196 30.9564 27.1992 30.957 28.4299 30.7972C29.0244 30.72 29.428 30.2073 29.5 29.5875C29.6112 28.6314 29.6112 27.3687 29.5 26.4126C29.428 25.7928 29.0244 25.28 28.4299 25.2029ZM25.462 26.7857C25.3848 26.7393 25.2886 26.7381 25.2102 26.7825C25.1319 26.8269 25.0834 26.91 25.0834 27V29C25.0834 29.0901 25.1319 29.1732 25.2102 29.2176C25.2886 29.262 25.3848 29.2608 25.462 29.2144L27.1287 28.2144C27.204 28.1692 27.2501 28.0879 27.2501 28C27.2501 27.9122 27.204 27.8308 27.1287 27.7857L25.462 26.7857Z" fill="white"/>
<path fill-rule="evenodd" clip-rule="evenodd" d="M28.4299 4.20285C27.1992 4.04311 24.9196 4.04368 23.6294 4.2038C23.0046 4.28134 22.5648 4.81794 22.4924 5.48085C22.3915 6.40518 22.3915 7.5949 22.4924 8.51924C22.5648 9.18215 23.0046 9.71874 23.6294 9.79628C24.9196 9.9564 27.1992 9.95698 28.4299 9.79723C29.0244 9.72005 29.428 9.20731 29.5 8.58747C29.6112 7.63138 29.6112 6.3687 29.5 5.41261C29.428 4.79277 29.0244 4.28003 28.4299 4.20285ZM25.462 5.78567C25.3848 5.73933 25.2886 5.73811 25.2102 5.78249C25.1319 5.82687 25.0834 5.90997 25.0834 6.00004V8.00004C25.0834 8.09011 25.1319 8.17321 25.2102 8.21759C25.2886 8.26197 25.3848 8.26075 25.462 8.21441L27.1287 7.21441C27.204 7.16923 27.2501 7.08786 27.2501 7.00004C27.2501 6.91222 27.204 6.83085 27.1287 6.78567L25.462 5.78567Z" fill="white"/>
<path fill-rule="evenodd" clip-rule="evenodd" d="M46.4299 25.2029C45.1992 25.0431 42.9196 25.0437 41.6294 25.2038C41.0046 25.2813 40.5648 25.8179 40.4924 26.4808C40.3915 27.4052 40.3915 28.5949 40.4924 29.5192C40.5648 30.1821 41.0046 30.7187 41.6294 30.7963C42.9196 30.9564 45.1992 30.957 46.4299 30.7972C47.0244 30.72 47.428 30.2073 47.5 29.5875C47.6112 28.6314 47.6112 27.3687 47.5 26.4126C47.428 25.7928 47.0244 25.28 46.4299 25.2029ZM43.462 26.7857C43.3848 26.7393 43.2886 26.7381 43.2102 26.7825C43.1319 26.8269 43.0834 26.91 43.0834 27V29C43.0834 29.0901 43.1319 29.1732 43.2102 29.2176C43.2886 29.262 43.3848 29.2608 43.462 29.2144L45.1287 28.2144C45.204 28.1692 45.2501 28.0879 45.2501 28C45.2501 27.9122 45.204 27.8308 45.1287 27.7857L43.462 26.7857Z" fill="white"/>
<path fill-rule="evenodd" clip-rule="evenodd" d="M46.4299 4.20285C45.1992 4.04311 42.9196 4.04368 41.6294 4.2038C41.0046 4.28134 40.5648 4.81794 40.4924 5.48085C40.3915 6.40518 40.3915 7.5949 40.4924 8.51924C40.5648 9.18215 41.0046 9.71874 41.6294 9.79628C42.9196 9.9564 45.1992 9.95698 46.4299 9.79723C47.0244 9.72005 47.428 9.20731 47.5 8.58747C47.6112 7.63138 47.6112 6.3687 47.5 5.41261C47.428 4.79277 47.0244 4.28003 46.4299 4.20285ZM43.462 5.78567C43.3848 5.73933 43.2886 5.73811 43.2102 5.78249C43.1319 5.82687 43.0834 5.90997 43.0834 6.00004V8.00004C43.0834 8.09011 43.1319 8.17321 43.2102 8.21759C43.2886 8.26197 43.3848 8.26075 43.462 8.21441L45.1287 7.21441C45.204 7.16923 45.2501 7.08786 45.2501 7.00004C45.2501 6.91222 45.204 6.83085 45.1287 6.78567L43.462 5.78567Z" fill="white"/>
<rect y="37" width="16" height="1" rx="0.5" fill="#9BA2AB"/>
<rect y="16" width="16" height="1" rx="0.5" fill="#9BA2AB"/>
<rect y="18" width="13" height="1" rx="0.5" fill="#9BA2AB"/>
<rect y="39" width="8" height="1" rx="0.5" fill="#9BA2AB"/>
<rect x="18" y="39" width="13" height="1" rx="0.5" fill="#9BA2AB"/>
<rect x="36" y="39" width="11" height="1" rx="0.5" fill="#9BA2AB"/>
<rect x="18" y="18" width="10" height="1" rx="0.5" fill="#9BA2AB"/>
<rect x="36" y="18" width="8" height="1" rx="0.5" fill="#9BA2AB"/>
<rect x="18" y="37" width="16" height="1" rx="0.5" fill="#9BA2AB"/>
<rect x="18" y="16" width="16" height="1" rx="0.5" fill="#9BA2AB"/>
<rect x="36" y="37" width="16" height="1" rx="0.5" fill="#9BA2AB"/>
<rect x="36" y="16" width="16" height="1" rx="0.5" fill="#9BA2AB"/>
</svg>
