<svg width="52" height="40" viewBox="0 0 52 40" fill="none" xmlns="http://www.w3.org/2000/svg">
<rect x="28" width="12" height="8.5" rx="1" fill="#C1C5CC"/>
<path fill-rule="evenodd" clip-rule="evenodd" d="M35.8223 2.15211C34.8993 2.0323 33.1896 2.03273 32.222 2.15282C31.7534 2.21098 31.4236 2.61342 31.3693 3.1106C31.2936 3.80386 31.2936 4.69615 31.3693 5.3894C31.4236 5.88658 31.7534 6.28902 32.222 6.34718C33.1896 6.46727 34.8993 6.4677 35.8223 6.34789C36.2683 6.29001 36.5709 5.90545 36.625 5.44057C36.7083 4.7235 36.7083 3.7765 36.625 3.05943C36.5709 2.59455 36.2683 2.20999 35.8223 2.15211ZM33.5965 3.33922C33.5385 3.30447 33.4664 3.30356 33.4076 3.33684C33.3488 3.37012 33.3125 3.43245 33.3125 3.5V5C33.3125 5.06755 33.3488 5.12988 33.4076 5.16316C33.4664 5.19644 33.5385 5.19553 33.5965 5.16078L34.8465 4.41078C34.9029 4.37689 34.9375 4.31586 34.9375 4.25C34.9375 4.18414 34.9029 4.12311 34.8465 4.08922L33.5965 3.33922Z" fill="white"/>
<path d="M42 2.5C42 2.22386 42.2239 2 42.5 2H51.5C51.7761 2 52 2.22386 52 2.5C52 2.77614 51.7761 3 51.5 3H42.5C42.2239 3 42 2.77614 42 2.5Z" fill="#9BA2AB"/>
<rect x="42" y="5" width="8" height="1" rx="0.5" fill="#9BA2AB"/>
<path d="M28 11.5C28 10.9477 28.4477 10.5 29 10.5H39C39.5523 10.5 40 10.9477 40 11.5V18C40 18.5523 39.5523 19 39 19H29C28.4477 19 28 18.5523 28 18V11.5Z" fill="#C1C5CC"/>
<path fill-rule="evenodd" clip-rule="evenodd" d="M35.8223 12.6521C34.8993 12.5323 33.1896 12.5327 32.222 12.6528C31.7534 12.711 31.4236 13.1134 31.3693 13.6106C31.2936 14.3039 31.2936 15.1961 31.3693 15.8894C31.4236 16.3866 31.7534 16.789 32.222 16.8472C33.1896 16.9673 34.8993 16.9677 35.8223 16.8479C36.2683 16.79 36.5709 16.4055 36.625 15.9406C36.7083 15.2235 36.7083 14.2765 36.625 13.5594C36.5709 13.0945 36.2683 12.71 35.8223 12.6521ZM33.5965 13.8392C33.5385 13.8045 33.4664 13.8036 33.4076 13.8368C33.3488 13.8701 33.3125 13.9324 33.3125 14V15.5C33.3125 15.5676 33.3488 15.6299 33.4076 15.6632C33.4664 15.6964 33.5385 15.6955 33.5965 15.6608L34.8465 14.9108C34.9029 14.8769 34.9375 14.8159 34.9375 14.75C34.9375 14.6841 34.9029 14.6231 34.8465 14.5892L33.5965 13.8392Z" fill="white"/>
<path d="M42 13C42 12.7239 42.2239 12.5 42.5 12.5H51.5C51.7761 12.5 52 12.7239 52 13C52 13.2761 51.7761 13.5 51.5 13.5H42.5C42.2239 13.5 42 13.2761 42 13Z" fill="#9BA2AB"/>
<path d="M42 16C42 15.7239 42.2239 15.5 42.5 15.5H49.5C49.7761 15.5 50 15.7239 50 16C50 16.2761 49.7761 16.5 49.5 16.5H42.5C42.2239 16.5 42 16.2761 42 16Z" fill="#9BA2AB"/>
<path d="M28 22C28 21.4477 28.4477 21 29 21H39C39.5523 21 40 21.4477 40 22V28.5C40 29.0523 39.5523 29.5 39 29.5H29C28.4477 29.5 28 29.0523 28 28.5V22Z" fill="#C1C5CC"/>
<path fill-rule="evenodd" clip-rule="evenodd" d="M35.8223 23.1521C34.8993 23.0323 33.1896 23.0327 32.222 23.1528C31.7534 23.211 31.4236 23.6134 31.3693 24.1106C31.2936 24.8039 31.2936 25.6961 31.3693 26.3894C31.4236 26.8866 31.7534 27.289 32.222 27.3472C33.1896 27.4673 34.8993 27.4677 35.8223 27.3479C36.2683 27.29 36.5709 26.9055 36.625 26.4406C36.7083 25.7235 36.7083 24.7765 36.625 24.0594C36.5709 23.5945 36.2683 23.21 35.8223 23.1521ZM33.5965 24.3392C33.5385 24.3045 33.4664 24.3036 33.4076 24.3368C33.3488 24.3701 33.3125 24.4324 33.3125 24.5V26C33.3125 26.0676 33.3488 26.1299 33.4076 26.1632C33.4664 26.1964 33.5385 26.1955 33.5965 26.1608L34.8465 25.4108C34.9029 25.3769 34.9375 25.3159 34.9375 25.25C34.9375 25.1841 34.9029 25.1231 34.8465 25.0892L33.5965 24.3392Z" fill="white"/>
<path d="M42 23.5C42 23.2239 42.2239 23 42.5 23H51.5C51.7761 23 52 23.2239 52 23.5C52 23.7761 51.7761 24 51.5 24H42.5C42.2239 24 42 23.7761 42 23.5Z" fill="#9BA2AB"/>
<path d="M42 26.5C42 26.2239 42.2239 26 42.5 26H49.5C49.7761 26 50 26.2239 50 26.5C50 26.7761 49.7761 27 49.5 27H42.5C42.2239 27 42 26.7761 42 26.5Z" fill="#9BA2AB"/>
<path d="M28 32.5C28 31.9477 28.4477 31.5 29 31.5H39C39.5523 31.5 40 31.9477 40 32.5V39C40 39.5523 39.5523 40 39 40H29C28.4477 40 28 39.5523 28 39V32.5Z" fill="#C1C5CC"/>
<path fill-rule="evenodd" clip-rule="evenodd" d="M35.8223 33.6521C34.8993 33.5323 33.1896 33.5327 32.222 33.6528C31.7534 33.711 31.4236 34.1134 31.3693 34.6106C31.2936 35.3039 31.2936 36.1961 31.3693 36.8894C31.4236 37.3866 31.7534 37.789 32.222 37.8472C33.1896 37.9673 34.8993 37.9677 35.8223 37.8479C36.2683 37.79 36.5709 37.4055 36.625 36.9406C36.7083 36.2235 36.7083 35.2765 36.625 34.5594C36.5709 34.0945 36.2683 33.71 35.8223 33.6521ZM33.5965 34.8392C33.5385 34.8045 33.4664 34.8036 33.4076 34.8368C33.3488 34.8701 33.3125 34.9324 33.3125 35V36.5C33.3125 36.5676 33.3488 36.6299 33.4076 36.6632C33.4664 36.6964 33.5385 36.6955 33.5965 36.6608L34.8465 35.9108C34.9029 35.8769 34.9375 35.8159 34.9375 35.75C34.9375 35.6841 34.9029 35.6231 34.8465 35.5892L33.5965 34.8392Z" fill="white"/>
<path d="M42 34.5C42 34.2239 42.2239 34 42.5 34H51.5C51.7761 34 52 34.2239 52 34.5C52 34.7761 51.7761 35 51.5 35H42.5C42.2239 35 42 34.7761 42 34.5Z" fill="#9BA2AB"/>
<path d="M42 37.5C42 37.2239 42.2239 37 42.5 37H49.5C49.7761 37 50 37.2239 50 37.5C50 37.7761 49.7761 38 49.5 38H42.5C42.2239 38 42 37.7761 42 37.5Z" fill="#9BA2AB"/>
<rect width="26" height="34" rx="1" fill="#C1C5CC"/>
<path fill-rule="evenodd" clip-rule="evenodd" d="M15.4299 14.2029C14.1992 14.0431 11.9196 14.0437 10.6294 14.2038C10.0046 14.2813 9.56482 14.8179 9.49244 15.4808C9.39152 16.4052 9.39152 17.5949 9.49244 18.5192C9.56482 19.1821 10.0046 19.7187 10.6294 19.7963C11.9196 19.9564 14.1992 19.957 15.4299 19.7972C16.0244 19.72 16.428 19.2073 16.5 18.5875C16.6112 17.6314 16.6112 16.3687 16.5 15.4126C16.428 14.7928 16.0244 14.28 15.4299 14.2029ZM12.462 15.7857C12.3848 15.7393 12.2886 15.7381 12.2102 15.7825C12.1319 15.8269 12.0834 15.91 12.0834 16V18C12.0834 18.0901 12.1319 18.1732 12.2102 18.2176C12.2886 18.262 12.3848 18.2608 12.462 18.2144L14.1287 17.2144C14.204 17.1692 14.2501 17.0879 14.2501 17C14.2501 16.9122 14.204 16.8308 14.1287 16.7857L12.462 15.7857Z" fill="white"/>
<rect y="39" width="19" height="1" rx="0.5" fill="#9BA2AB"/>
<rect y="36" width="26" height="1" rx="0.5" fill="#9BA2AB"/>
</svg>
