<svg width="24" height="24" viewBox="0 0 24 24" fill="none" xmlns="http://www.w3.org/2000/svg">
<path d="M3 4C3 3.44772 3.44772 3 4 3H20C20.5523 3 21 3.44772 21 4V9H4C3.44772 9 3 8.55228 3 8V4Z" stroke="#1F66FF" stroke-width="1.5" stroke-linejoin="round"/>
<path d="M5 9H21V20C21 20.5523 20.5523 21 20 21H6C5.44772 21 5 20.5523 5 20V9Z" stroke="#1F66FF" stroke-width="1.5" stroke-linejoin="round"/>
<path d="M6 6H7.5" stroke="#1F66FF" stroke-linecap="round" stroke-linejoin="round"/>
<path d="M9.5 6H11" stroke="#1F66FF" stroke-linecap="round" stroke-linejoin="round"/>
<path d="M13 5.25L14.5 6.75L16 5.25" stroke="#1F66FF" stroke-linecap="round" stroke-linejoin="round"/>
<path d="M8 12H13V18H8V12Z" stroke="#1F66FF" stroke-linejoin="round"/>
<path d="M15 13H18" stroke="#1F66FF" stroke-linecap="round" stroke-linejoin="round"/>
<path d="M15 17H18" stroke="#1F66FF" stroke-linecap="round" stroke-linejoin="round"/>
<path d="M15 15H17" stroke="#1F66FF" stroke-linecap="round" stroke-linejoin="round"/>
</svg>
