<svg width="100" height="100" viewBox="0 0 100 100" fill="none" xmlns="http://www.w3.org/2000/svg">
    <rect width="100" height="100" fill="#0D64FF" />
    <path fill-rule="evenodd" clip-rule="evenodd"
        d="M18.9219 24.5772C18.9219 21.4647 21.3701 18.9414 24.3901 18.9414H44.1198C44.1628 18.9414 44.2057 18.9419 44.2486 18.9429C44.2921 18.9439 44.3357 18.9456 44.3789 18.9476L44.401 18.9481C46.0008 19.0317 47.4191 19.8241 48.3666 21.0262C43.8554 21.8172 40.4635 25.8581 40.4635 30.6617V39.1119H30.2858C24.9921 39.1119 20.764 43.5244 20.764 48.8876V49.1303C19.7047 48.1622 19.0124 46.7767 18.9301 45.2241C18.9247 45.1206 18.9219 45.0164 18.9219 44.9114V24.5772Z"
        fill="white" />
    <path fill-rule="evenodd" clip-rule="evenodd"
        d="M75.1837 30.6616V45.1964H58.8345C57.8745 42.7825 56.0006 40.8417 53.6422 39.8443C52.5267 39.3725 51.3028 39.1119 50.0161 39.1119H49.5886H44.5176V30.6616C44.5176 27.6868 46.7541 25.2502 49.5886 25.0405C49.7198 25.0308 49.8522 25.0259 49.9858 25.0259H53.6422H69.7156C69.8024 25.0259 69.8888 25.028 69.9746 25.0321C69.9819 25.0325 69.9893 25.0322 69.9967 25.0326C72.886 25.1834 75.1837 27.6463 75.1837 30.6616Z"
        fill="white" />
    <path fill-rule="evenodd" clip-rule="evenodd"
        d="M59.5371 56.6311V49.3354H75.6091C75.6959 49.3354 75.7823 49.3376 75.8681 49.3417L75.8902 49.3422C77.1716 49.4091 78.3368 49.9309 79.2366 50.7537C80.3658 51.7861 81.0772 53.2931 81.0772 54.9712V75.3056C81.0772 75.3959 81.0753 75.4855 81.0712 75.5748L81.0707 75.5952C80.9244 78.5733 78.5347 80.9414 75.6091 80.9415H55.8793C55.7925 80.9415 55.7061 80.939 55.6203 80.935L55.5982 80.9345C53.9986 80.8511 52.5802 80.0587 51.6328 78.8566C56.1445 78.0661 59.5371 74.0249 59.5371 69.2209V60.7707V56.6311Z"
        fill="white" />
    <path
        d="M50.0124 43.251H30.2827C27.2626 43.251 24.8145 45.7742 24.8145 48.8868V50.5463V54.6862V69.2212C24.8145 72.3338 27.2626 74.857 30.2827 74.857L46.3547 74.8571L50.0124 74.857C50.1455 74.857 50.2776 74.8522 50.4084 74.8426C53.0581 74.6472 55.1854 72.5057 55.4523 69.7976C55.471 69.6081 55.4806 69.4158 55.4806 69.2212L55.4805 60.7707V56.6312V49.35L55.4806 48.8868C55.4805 47.5407 55.0227 46.3048 54.2586 45.3356C54.0699 45.0962 53.8624 44.873 53.6386 44.6685C52.8045 43.9062 51.7426 43.4027 50.5715 43.2801C50.4795 43.2705 50.3869 43.2626 50.2936 43.2577C50.2861 43.2573 50.2786 43.2576 50.2711 43.2572C50.1854 43.2531 50.0991 43.251 50.0124 43.251Z"
        fill="white" />
</svg>