<svg width="292" height="84" viewBox="0 0 292 84" fill="none" xmlns="http://www.w3.org/2000/svg">
    <path
        d="M42 84C65.196 84 84 65.196 84 42C84 18.804 65.196 0 42 0C18.804 0 0 18.804 0 42C0 65.196 18.804 84 42 84Z"
        fill="#0D64FF" />
    <path fill-rule="evenodd" clip-rule="evenodd"
        d="M20.4375 24.3672C20.4375 22.2077 22.1361 20.457 24.2314 20.457H37.9203C37.9502 20.457 37.9799 20.4574 38.0097 20.4581C38.0399 20.4588 38.0701 20.46 38.1001 20.4614L38.1154 20.4617C39.2254 20.5197 40.2095 21.0695 40.8668 21.9035C37.7368 22.4523 35.3835 25.256 35.3835 28.5888V34.4517H28.322C24.6492 34.4517 21.7156 37.5132 21.7156 41.2343V41.4027C20.9806 40.731 20.5003 39.7697 20.4432 38.6925C20.4394 38.6207 20.4375 38.5484 20.4375 38.4755V24.3672Z"
        fill="white" />
    <path fill-rule="evenodd" clip-rule="evenodd"
        d="M59.4721 28.5889V38.6734H48.1287C47.4626 36.9986 46.1625 35.6521 44.5262 34.96C43.7522 34.6327 42.9031 34.4519 42.0103 34.4519H41.7137H38.1953V28.5889C38.1953 26.5249 39.747 24.8344 41.7137 24.6889C41.8047 24.6821 41.8966 24.6787 41.9893 24.6787H44.5262H55.6782C55.7385 24.6787 55.7984 24.6802 55.8579 24.683C55.863 24.6833 55.8681 24.6831 55.8732 24.6834C57.8779 24.788 59.4721 26.4968 59.4721 28.5889Z"
        fill="white" />
    <path fill-rule="evenodd" clip-rule="evenodd"
        d="M48.6169 46.6073V41.5454H59.7681C59.8283 41.5454 59.8882 41.5469 59.9477 41.5497L59.9631 41.5501C60.8522 41.5965 61.6606 41.9586 62.2848 42.5294C63.0683 43.2457 63.5619 44.2913 63.5619 45.4556V59.564C63.5619 59.6267 63.5606 59.6889 63.5578 59.7508L63.5574 59.7649C63.4559 61.8312 61.7979 63.4742 59.7681 63.4744H46.0791C46.0189 63.4744 45.9589 63.4726 45.8994 63.4698L45.8841 63.4694C44.7742 63.4116 43.7902 62.8618 43.1328 62.0278C46.2631 61.4793 48.6169 58.6754 48.6169 55.3424V49.4794V46.6073Z"
        fill="white" />
    <path
        d="M42.0102 37.3237H28.3213C26.2259 37.3237 24.5273 39.0744 24.5273 41.2339V42.3854V45.2577V55.3424C24.5273 57.502 26.2259 59.2526 28.3213 59.2526L39.4724 59.2527L42.0102 59.2526C42.1026 59.2526 42.1942 59.2493 42.2849 59.2426C44.1233 59.107 45.5993 57.6213 45.7845 55.7423C45.7975 55.6108 45.8041 55.4774 45.8041 55.3424L45.8041 49.4793V46.6072V41.5553L45.8041 41.2339C45.8041 40.3 45.4864 39.4425 44.9563 38.7701C44.8254 38.6039 44.6814 38.4491 44.5261 38.3072C43.9474 37.7783 43.2106 37.429 42.3981 37.3439C42.3343 37.3373 42.27 37.3318 42.2053 37.3284C42.2001 37.3281 42.1949 37.3283 42.1897 37.3281C42.1302 37.3252 42.0703 37.3237 42.0102 37.3237Z"
        fill="white" />
    <path
        d="M234.645 28.8174H242.176V35.7783H234.645V55.5146C234.645 56.7243 234.827 57.6525 235.191 58.2988C235.573 58.9286 236.069 59.3598 236.683 59.5918C237.296 59.8238 237.975 59.9394 238.721 59.9395C239.284 59.9395 239.798 59.8983 240.262 59.8154C240.742 59.7326 241.107 59.6581 241.355 59.5918L242.872 66.627C242.391 66.7927 241.703 66.975 240.809 67.1738C239.93 67.3726 238.853 67.4883 237.577 67.5215C235.323 67.5877 233.294 67.2477 231.487 66.502C229.681 65.7396 228.247 64.5635 227.187 62.9727C226.143 61.3818 225.629 59.3931 225.646 57.0068V35.7783H220.227V28.8174H225.646V19.6699H234.645V28.8174Z"
        fill="#0A0A0A" />
    <path
        d="M215.87 38.9108L207.667 39.8057C207.435 38.9771 207.029 38.1982 206.449 37.469C205.885 36.7398 205.123 36.1515 204.162 35.7041C203.201 35.2567 202.024 35.0329 200.632 35.0329C198.759 35.0329 197.185 35.4389 195.909 36.251C194.649 37.063 194.028 38.1153 194.045 39.4079C194.028 40.5183 194.434 41.4214 195.263 42.1175C196.108 42.8135 197.5 43.3852 199.439 43.8327L205.952 45.2247C209.564 46.0036 212.249 47.2382 214.006 48.9285C215.779 50.6189 216.674 52.8312 216.69 55.5656C216.674 57.9685 215.969 60.0898 214.577 61.9292C213.202 63.7522 211.288 65.1773 208.835 66.2048C206.382 67.2323 203.565 67.746 200.383 67.746C195.71 67.746 191.948 66.7683 189.098 64.8128C186.247 62.8407 184.549 60.098 184.002 56.5848L192.777 55.7396C193.175 57.4631 194.02 58.764 195.312 59.6423C196.605 60.5206 198.287 60.9598 200.358 60.9598C202.496 60.9598 204.211 60.5206 205.504 59.6423C206.813 58.764 207.468 57.6785 207.468 56.3859C207.468 55.2922 207.045 54.389 206.2 53.6764C205.372 52.9638 204.079 52.4169 202.322 52.0358L195.809 50.6686C192.147 49.9063 189.438 48.622 187.681 46.8156C185.924 44.9927 185.054 42.6892 185.071 39.9051C185.054 37.5519 185.692 35.5135 186.985 33.79C188.294 32.05 190.109 30.7077 192.429 29.763C194.765 28.8019 197.458 28.3213 200.508 28.3213C204.982 28.3213 208.504 29.2742 211.072 31.18C213.658 33.0857 215.257 35.6627 215.87 38.9108Z"
        fill="#0A0A0A" />
    <path
        d="M160.758 67.746C157.03 67.746 153.798 66.9257 151.064 65.2851C148.329 63.6444 146.208 61.3492 144.7 58.3994C143.209 55.4496 142.463 52.0026 142.463 48.0585C142.463 44.1144 143.209 40.6591 144.7 37.6927C146.208 34.7264 148.329 32.4229 151.064 30.7822C153.798 29.1416 157.03 28.3213 160.758 28.3213C164.487 28.3213 167.719 29.1416 170.453 30.7822C173.187 32.4229 175.3 34.7264 176.792 37.6927C178.3 40.6591 179.054 44.1144 179.054 48.0585C179.054 52.0026 178.3 55.4496 176.792 58.3994C175.3 61.3492 173.187 63.6444 170.453 65.2851C167.719 66.9257 164.487 67.746 160.758 67.746ZM160.808 60.5372C162.83 60.5372 164.52 59.982 165.879 58.8717C167.238 57.7448 168.249 56.2368 168.912 54.3476C169.591 52.4584 169.931 50.3537 169.931 48.0336C169.931 45.697 169.591 43.5841 168.912 41.6949C168.249 39.7891 167.238 38.2728 165.879 37.1459C164.52 36.019 162.83 35.4555 160.808 35.4555C158.737 35.4555 157.013 36.019 155.638 37.1459C154.279 38.2728 153.26 39.7891 152.58 41.6949C151.917 43.5841 151.586 45.697 151.586 48.0336C151.586 50.3537 151.917 52.4584 152.58 54.3476C153.26 56.2368 154.279 57.7448 155.638 58.8717C157.013 59.982 158.737 60.5372 160.808 60.5372Z"
        fill="#0A0A0A" />
    <path
        d="M121.091 16.0908C125.002 16.0908 128.283 16.82 130.935 18.2783C133.603 19.7367 135.617 21.7419 136.976 24.2939C138.351 26.8294 139.038 29.713 139.038 32.9443C139.038 36.2088 138.351 39.1091 136.976 41.6445C135.6 44.18 133.569 46.1774 130.885 47.6357C128.2 49.0774 124.894 49.7978 120.967 49.7979H111.223V67H102V16.0908H121.091ZM111.223 42.2168H119.724C122.011 42.2168 123.883 41.8189 125.342 41.0234C126.8 40.228 127.877 39.1342 128.573 37.7422C129.286 36.3501 129.642 34.7507 129.642 32.9443C129.642 31.1381 129.286 29.5473 128.573 28.1719C127.877 26.7964 126.791 25.7272 125.316 24.9648C123.858 24.1861 121.977 23.7969 119.674 23.7969H111.223V42.2168Z"
        fill="#0A0A0A" />
    <path fill-rule="evenodd" clip-rule="evenodd"
        d="M291.781 16H280.781L271.781 29.5L277.281 37.75L291.781 16Z" fill="#0A0A0A" />
    <path
        d="M246.781 16L263.781 41.5L246.781 67H257.781L269.281 49.75L280.781 67H291.781L274.781 41.5L269.281 33.25L257.781 16H246.781Z"
        fill="#0A0A0A" />
</svg>