<svg width="24" height="24" viewBox="0 0 24 24" fill="none" xmlns="http://www.w3.org/2000/svg">
<path d="M3 4C3 3.44772 3.44772 3 4 3H20C20.5523 3 21 3.44772 21 4V20C21 20.5523 20.5523 21 20 21H4C3.44772 21 3 20.5523 3 20V4Z" stroke="#1F66FF" stroke-width="1.5"/>
<path d="M6.301 13.7282C6.15087 14.1142 6.34212 14.5489 6.72817 14.699C7.11421 14.8491 7.54887 14.6579 7.699 14.2718L6.301 13.7282ZM9.568 7.39659L10.267 7.66842V7.66842L9.568 7.39659ZM11.432 7.39659L10.733 7.66842L10.733 7.66842L11.432 7.39659ZM13.301 14.2718C13.4511 14.6579 13.8858 14.8491 14.2718 14.699C14.6579 14.5489 14.8491 14.1142 14.699 13.7282L13.301 14.2718ZM7.699 14.2718L10.267 7.66842L8.86899 7.12475L6.301 13.7282L7.699 14.2718ZM10.733 7.66842L13.301 14.2718L14.699 13.7282L12.131 7.12475L10.733 7.66842ZM10.267 7.66842C10.3496 7.45591 10.6504 7.4559 10.733 7.66842L12.131 7.12475C11.5525 5.63713 9.44751 5.63712 8.86899 7.12475L10.267 7.66842ZM8.5 11.75H12.5V10.25H8.5V11.75Z" fill="#1F66FF"/>
<path d="M6.5 17H17" stroke="#1F66FF" stroke-width="1.5" stroke-linecap="round" stroke-linejoin="round"/>
</svg>
