<svg width="24" height="24" viewBox="0 0 24 24" fill="none" xmlns="http://www.w3.org/2000/svg">
<path d="M1 5C1 4.44772 1.44772 4 2 4H22C22.5523 4 23 4.44772 23 5V19C23 19.5523 22.5523 20 22 20H2C1.44772 20 1 19.5523 1 19V5Z" stroke="#1F66FF" stroke-width="1.5"/>
<path d="M12 4V20" stroke="#1F66FF" stroke-width="1.5" stroke-linecap="round" stroke-linejoin="round"/>
<path d="M7 8.5C7 8.22386 6.77614 8 6.5 8C6.22386 8 6 8.22386 6 8.5H7ZM6 15.5C6 15.7761 6.22386 16 6.5 16C6.77614 16 7 15.7761 7 15.5H6ZM10 12.5C10.2761 12.5 10.5 12.2761 10.5 12C10.5 11.7239 10.2761 11.5 10 11.5V12.5ZM3 11.5C2.72386 11.5 2.5 11.7239 2.5 12C2.5 12.2761 2.72386 12.5 3 12.5V11.5ZM4.64644 10.8535L4.99999 11.2071L5.7071 10.5L5.35354 10.1464L4.64644 10.8535ZM4.37866 9.17154C4.1834 8.97628 3.86681 8.97628 3.67155 9.17154C3.47629 9.3668 3.47629 9.68339 3.67155 9.87865L4.37866 9.17154ZM8.6213 14.8284C8.81656 15.0237 9.13314 15.0237 9.32841 14.8284C9.52367 14.6331 9.52367 14.3166 9.32841 14.1213L8.6213 14.8284ZM8.35351 13.1464L7.99995 12.7928L7.29285 13.4999L7.6464 13.8535L8.35351 13.1464ZM9.32841 9.87865C9.52367 9.68339 9.52367 9.3668 9.32841 9.17154C9.13314 8.97628 8.81656 8.97628 8.6213 9.17154L9.32841 9.87865ZM7.64642 10.1464L7.29286 10.5L7.99997 11.2071L8.35352 10.8535L7.64642 10.1464ZM5.37866 13.8284L5.73221 13.4748L5.02511 12.7677L4.67155 13.1213L5.37866 13.8284ZM3.67155 14.1213C3.47629 14.3166 3.47629 14.6331 3.67155 14.8284C3.86681 15.0237 4.1834 15.0237 4.37866 14.8284L3.67155 14.1213ZM8 12H7.5C7.5 12.5523 7.05228 13 6.5 13V13.5V14C7.60457 14 8.5 13.1046 8.5 12H8ZM6.5 13.5V13C5.94772 13 5.5 12.5523 5.5 12H5H4.5C4.5 13.1046 5.39543 14 6.5 14V13.5ZM5 12H5.5C5.5 11.4477 5.94772 11 6.5 11V10.5V10C5.39543 10 4.5 10.8954 4.5 12H5ZM6.5 10.5V11C7.05228 11 7.5 11.4477 7.5 12H8H8.5C8.5 10.8954 7.60457 10 6.5 10V10.5ZM6.5 10.5H7V8.5H6.5H6V10.5H6.5ZM6.5 15.5H7V13.5H6.5H6V15.5H6.5ZM10 12V11.5L8 11.5V12V12.5H10V12ZM5 12V11.5H3V12V12.5H5V12ZM4.99999 10.5L5.35354 10.1464L4.37866 9.17154L4.02511 9.5251L3.67155 9.87865L4.64644 10.8535L4.99999 10.5ZM8.97485 14.4748L9.32841 14.1213L8.35351 13.1464L7.99995 13.4999L7.6464 13.8535L8.6213 14.8284L8.97485 14.4748ZM8.97485 9.5251L8.6213 9.17154L7.64642 10.1464L7.99997 10.5L8.35352 10.8535L9.32841 9.87865L8.97485 9.5251ZM5.02511 13.4748L4.67155 13.1213L3.67155 14.1213L4.02511 14.4748L4.37866 14.8284L5.37866 13.8284L5.02511 13.4748Z" fill="#1F66FF"/>
<path d="M20.6365 12.6948C20.3125 14.0268 19.1113 15.0144 17.6797 15.0144C15.9997 15.0144 14.6365 13.6512 14.6365 11.97C14.6365 10.5384 15.6241 9.3384 16.9549 9.0144C16.6681 9.438 16.5001 9.9492 16.5001 10.5C16.5001 11.9628 17.6869 13.1496 19.1509 13.1496C19.7017 13.1496 20.2129 12.9828 20.6365 12.6948Z" stroke="#1F66FF" stroke-linejoin="round"/>
</svg>
