<svg width="24" height="24" viewBox="0 0 24 24" fill="none" xmlns="http://www.w3.org/2000/svg">
<path d="M3 4C3 3.44772 3.44772 3 4 3H20C20.5523 3 21 3.44772 21 4V20C21 20.5523 20.5523 21 20 21H4C3.44772 21 3 20.5523 3 20V4Z" stroke="#1F66FF" stroke-width="1.5"/>
<path d="M7.75 16.5C7.75 16.9142 8.08579 17.25 8.5 17.25C8.91421 17.25 9.25 16.9142 9.25 16.5H7.75ZM14.75 16.5C14.75 16.9142 15.0858 17.25 15.5 17.25C15.9142 17.25 16.25 16.9142 16.25 16.5H14.75ZM15.5 12.75C15.9142 12.75 16.25 12.4142 16.25 12C16.25 11.5858 15.9142 11.25 15.5 11.25V12.75ZM7.5 15.75C7.08579 15.75 6.75 16.0858 6.75 16.5C6.75 16.9142 7.08579 17.25 7.5 17.25V15.75ZM9.5 17.25C9.91421 17.25 10.25 16.9142 10.25 16.5C10.25 16.0858 9.91421 15.75 9.5 15.75V17.25ZM7.5 6.75C7.08579 6.75 6.75 7.08579 6.75 7.5C6.75 7.91421 7.08579 8.25 7.5 8.25V6.75ZM9.5 8.25C9.91421 8.25 10.25 7.91421 10.25 7.5C10.25 7.08579 9.91421 6.75 9.5 6.75V8.25ZM14.5 6.75C14.0858 6.75 13.75 7.08579 13.75 7.5C13.75 7.91421 14.0858 8.25 14.5 8.25V6.75ZM16.5 8.25C16.9142 8.25 17.25 7.91421 17.25 7.5C17.25 7.08579 16.9142 6.75 16.5 6.75V8.25ZM14.5 15.75C14.0858 15.75 13.75 16.0858 13.75 16.5C13.75 16.9142 14.0858 17.25 14.5 17.25V15.75ZM16.5 17.25C16.9142 17.25 17.25 16.9142 17.25 16.5C17.25 16.0858 16.9142 15.75 16.5 15.75V17.25ZM7.75 7.5L7.75 16.5H9.25L9.25 7.5L7.75 7.5ZM14.75 7.5V16.5H16.25V7.5H14.75ZM8.5 12.75H15.5V11.25H8.5V12.75ZM7.5 17.25H9.5V15.75H7.5V17.25ZM7.5 8.25H9.5V6.75H7.5V8.25ZM14.5 8.25H16.5V6.75H14.5V8.25ZM14.5 17.25H16.5V15.75H14.5V17.25Z" fill="#1F66FF"/>
</svg>
