<svg width="24" height="24" viewBox="0 0 24 24" fill="none" xmlns="http://www.w3.org/2000/svg">
<path d="M2 5C2 4.44772 2.44772 4 3 4H21C21.5523 4 22 4.44772 22 5V19C22 19.5523 21.5523 20 21 20H3C2.44772 20 2 19.5523 2 19V5Z" stroke="#1F66FF" stroke-width="1.5"/>
<path d="M2 16.9999L6.58579 12.4142C7.36683 11.6331 8.63316 11.6331 9.41421 12.4142L12.0858 15.0857C12.8668 15.8668 14.1332 15.8668 14.9142 15.0857L15.5858 14.4142C16.3668 13.6331 17.6332 13.6331 18.4142 14.4142L22 17.9999" stroke="#1F66FF" stroke-width="1.5" stroke-linecap="round"/>
<path d="M18.5 9C18.5 9.82843 17.8284 10.5 17 10.5C16.1716 10.5 15.5 9.82843 15.5 9C15.5 8.17157 16.1716 7.5 17 7.5C17.8284 7.5 18.5 8.17157 18.5 9Z" stroke="#1F66FF" stroke-width="1.5"/>
</svg>
