<svg width="24" height="24" viewBox="0 0 24 24" fill="none" xmlns="http://www.w3.org/2000/svg">
<path d="M6 5H4C3.44772 5 3 5.44772 3 6V18C3 18.5523 3.44772 19 4 19H6" stroke="#1F66FF" stroke-width="1.5" stroke-linecap="square"/>
<path d="M18 5H20C20.5523 5 21 5.44772 21 6V18C21 18.5523 20.5523 19 20 19H18" stroke="#1F66FF" stroke-width="1.5" stroke-linecap="square"/>
<path d="M6 4C6 3.44772 6.44772 3 7 3H17C17.5523 3 18 3.44772 18 4V20C18 20.5523 17.5523 21 17 21H7C6.44772 21 6 20.5523 6 20V4Z" stroke="#1F66FF" stroke-width="1.5" stroke-linejoin="round"/>
<path d="M10 10.5L8.5 12L10 13.5" stroke="#1F66FF" stroke-linecap="round" stroke-linejoin="round"/>
<path d="M14 13.5L15.5 12L14 10.5" stroke="#1F66FF" stroke-linecap="round" stroke-linejoin="round"/>
</svg>
