<svg width="24" height="24" viewBox="0 0 24 24" fill="none" xmlns="http://www.w3.org/2000/svg">
<path d="M20 3C20.5523 3 21 3.44772 21 4V9.5C21 10.0523 20.5523 10.5 20 10.5L4 10.5C3.44772 10.5 3 10.0523 3 9.5L3 4C3 3.44772 3.44772 3 4 3L20 3Z" stroke="#1F66FF" stroke-width="1.5"/>
<path d="M20 13.5C20.5523 13.5 21 13.9477 21 14.5L21 20C21 20.5523 20.5523 21 20 21L14.5 21C13.9477 21 13.5 20.5523 13.5 20L13.5 14.5C13.5 13.9477 13.9477 13.5 14.5 13.5L20 13.5Z" stroke="#1F66FF" stroke-width="1.5"/>
<path d="M9.5 13.5C10.0523 13.5 10.5 13.9477 10.5 14.5L10.5 20C10.5 20.5523 10.0523 21 9.5 21L4 21C3.44772 21 3 20.5523 3 20L3 14.5C3 13.9477 3.44772 13.5 4 13.5L9.5 13.5Z" stroke="#1F66FF" stroke-width="1.5"/>
</svg>
