<svg width="24" height="24" viewBox="0 0 24 24" fill="none" xmlns="http://www.w3.org/2000/svg">
<path d="M13.2426 5.41421C14.0236 4.63316 14.0236 3.36684 13.2426 2.58579C12.4615 1.80474 11.1952 1.80474 10.4142 2.58579C9.63311 3.36684 9.63311 4.63316 10.4142 5.41421M13.2426 5.41421C12.4615 6.19526 11.1952 6.19526 10.4142 5.41421M13.2426 5.41421L18.5 10.6716M10.4142 5.41421L5.32837 10.5M13.2426 18.5858C14.0236 19.3668 14.0236 20.6332 13.2426 21.4142C12.4615 22.1953 11.1952 22.1953 10.4142 21.4142C9.63311 20.6332 9.63311 19.3668 10.4142 18.5858C11.1952 17.8047 12.4615 17.8047 13.2426 18.5858ZM13.2426 18.5858L18.5 13.3284M5.41421 13.4142C6.19526 12.6332 6.19526 11.3668 5.41421 10.5858C4.63316 9.80474 3.36684 9.80474 2.58579 10.5858C1.80474 11.3668 1.80474 12.6332 2.58579 13.4142C3.36684 14.1953 4.63316 14.1953 5.41421 13.4142ZM5.41421 13.4142L10.5 18.5M21.4142 10.5858C22.1953 11.3668 22.1953 12.6332 21.4142 13.4142C20.6332 14.1953 19.3668 14.1953 18.5858 13.4142C17.8047 12.6332 17.8047 11.3668 18.5858 10.5858C19.3668 9.80474 20.6332 9.80474 21.4142 10.5858Z" stroke="#1F66FF" stroke-width="1.5"/>
</svg>
