<svg width="24" height="24" viewBox="0 0 24 24" fill="none" xmlns="http://www.w3.org/2000/svg">
<path d="M4 3C4 2.44772 4.44772 2 5 2H19C19.5523 2 20 2.44772 20 3V21C20 21.5523 19.5523 22 19 22H5C4.44772 22 4 21.5523 4 21V3Z" stroke="#1F66FF" stroke-width="1.5"/>
<path d="M9.5 6H17" stroke="#1F66FF" stroke-width="1.5" stroke-linecap="round" stroke-linejoin="round"/>
<path d="M9.5 15H17" stroke="#1F66FF" stroke-width="1.5" stroke-linecap="round" stroke-linejoin="round"/>
<path d="M12.5 9L16 9" stroke="#1F66FF" stroke-width="1.5" stroke-linecap="round" stroke-linejoin="round"/>
<path d="M12.5 18L15 18" stroke="#1F66FF" stroke-width="1.5" stroke-linecap="round" stroke-linejoin="round"/>
<path d="M12.5 12L16.5 12" stroke="#1F66FF" stroke-width="1.5" stroke-linecap="round" stroke-linejoin="round"/>
<path d="M7 6H7.01" stroke="#1F66FF" stroke-width="1.5" stroke-linecap="round" stroke-linejoin="round"/>
<path d="M7 15H7.01" stroke="#1F66FF" stroke-width="1.5" stroke-linecap="round" stroke-linejoin="round"/>
<path d="M9.99 9H10" stroke="#1F66FF" stroke-width="1.5" stroke-linecap="round" stroke-linejoin="round"/>
<path d="M9.99 18H10" stroke="#1F66FF" stroke-width="1.5" stroke-linecap="round" stroke-linejoin="round"/>
<path d="M10 12H10.01" stroke="#1F66FF" stroke-width="1.5" stroke-linecap="round" stroke-linejoin="round"/>
</svg>
