<svg width="24" height="24" viewBox="0 0 24 24" fill="none" xmlns="http://www.w3.org/2000/svg">
<path d="M6 4C6 5.10457 5.10457 6 4 6M6 4C6 2.89543 5.10457 2 4 2C2.89543 2 2 2.89543 2 4C2 5.10457 2.89543 6 4 6M6 4H18M4 6V18M20 6C21.1046 6 22 5.10457 22 4C22 2.89543 21.1046 2 20 2C18.8954 2 18 2.89543 18 4M20 6C18.8954 6 18 5.10457 18 4M20 6V18M18 20C18 21.1046 18.8954 22 20 22C21.1046 22 22 21.1046 22 20C22 18.8954 21.1046 18 20 18M18 20C18 18.8954 18.8954 18 20 18M18 20H6M6 20C6 21.1046 5.10457 22 4 22C2.89543 22 2 21.1046 2 20C2 18.8954 2.89543 18 4 18M6 20C6 18.8954 5.10457 18 4 18" stroke="#1F66FF" stroke-width="1.5" stroke-linejoin="round"/>
<path d="M8 8H16V11.5H8V8Z" stroke="#1F66FF" stroke-linejoin="round"/>
<rect x="8" y="13" width="8" height="3" stroke="#1F66FF" stroke-linejoin="round"/>
</svg>
