<svg viewBox="0 0 42 39" fill="none" xmlns="http://www.w3.org/2000/svg">
<path d="M17.2159 0H4.51902C2.57552 0 1 1.57126 1 3.50953V16.1722C1 18.1105 2.57552 19.6818 4.51902 19.6818H17.2159C19.1594 19.6818 20.735 18.1105 20.735 16.1722V3.50953C20.735 1.57126 19.1594 0 17.2159 0Z" fill="#037FFF"/>
<path d="M33.6877 3.78809H20.9906C19.0472 3.78809 17.4717 5.35936 17.4717 7.2976V19.9603C17.4717 21.8985 19.0472 23.4698 20.9906 23.4698H33.6877C35.6311 23.4698 37.2067 21.8985 37.2067 19.9603V7.2976C37.2067 5.35936 35.6311 3.78809 33.6877 3.78809Z" fill="#3BABFF"/>
<path d="M37.4805 18.9263H24.7836C22.84 18.9263 21.2646 20.4976 21.2646 22.4358V35.0984C21.2646 37.0369 22.84 38.6082 24.7836 38.6082H37.4805C39.4239 38.6082 40.9995 37.0369 40.9995 35.0984V22.4358C40.9995 20.4976 39.4239 18.9263 37.4805 18.9263Z" fill="#69C6FF"/>
<path d="M21.0108 15.1384H8.31396C6.37044 15.1384 4.79492 16.7097 4.79492 18.6479V31.3107C4.79492 33.249 6.37044 34.8201 8.31396 34.8201H21.0108C22.9543 34.8201 24.5299 33.249 24.5299 31.3107V18.6479C24.5299 16.7097 22.9543 15.1384 21.0108 15.1384Z" fill="#71DEFF"/>
</svg>
