<svg viewBox="0 0 40 40" fill="none" xmlns="http://www.w3.org/2000/svg">
<path d="M18.5398 5.71253L9.63297 7.56904C9.10433 7.67923 8.76511 8.1971 8.8753 8.72575L10.7318 17.6326C10.842 18.1612 11.3599 18.5004 11.8885 18.3902L20.7953 16.5337C21.324 16.4235 21.6632 15.9057 21.553 15.377L19.6965 6.47021C19.5863 5.94156 19.0684 5.60234 18.5398 5.71253Z" fill="#FEAD01"/>
<path d="M21.0847 17.9235L12.1779 19.78C11.6493 19.8902 11.31 20.408 11.4202 20.9367L13.2767 29.8435C13.3869 30.3721 13.9048 30.7114 14.4334 30.6012L23.3402 28.7447C23.8689 28.6345 24.2081 28.1166 24.0979 27.588L22.2414 18.6811C22.1312 18.1525 21.6133 17.8133 21.0847 17.9235Z" fill="#FEAD01"/>
<path d="M30.7527 3.16712L21.8459 5.02363C21.3172 5.13382 20.978 5.65169 21.0882 6.18034L22.9447 15.0871C23.0549 15.6158 23.5728 15.955 24.1014 15.8448L33.0082 13.9883C33.5369 13.8781 33.8761 13.3602 33.7659 12.8316L31.9094 3.9248C31.7992 3.39615 31.2813 3.05693 30.7527 3.16712Z" fill="#FEAD01"/>
<path d="M33.2976 15.3793L24.3908 17.2358C23.8621 17.346 23.5229 17.8639 23.6331 18.3925L25.4896 27.2993C25.5998 27.8279 26.1177 28.1672 26.6463 28.057L35.5531 26.2005C36.0818 26.0903 36.421 25.5724 36.3108 25.0438L34.4543 16.137C34.3441 15.6083 33.8262 15.2691 33.2976 15.3793Z" fill="#FEAD01"/>
<path d="M9.90516 29.656C9.727 29.6557 9.55434 29.5942 9.41618 29.4817C9.27803 29.3692 9.18279 29.2127 9.14641 29.0383L4.28872 5.71363C4.23526 5.45727 4.08224 5.2326 3.86328 5.08895C3.64432 4.9453 3.37731 4.89442 3.12086 4.94747C2.99369 4.97367 2.87297 5.02482 2.76569 5.09797C2.65841 5.17112 2.56669 5.26481 2.49584 5.37362C2.42425 5.48194 2.37493 5.60342 2.35075 5.73099C2.32656 5.85855 2.328 5.98966 2.35498 6.11666L2.73709 7.94986C2.77905 8.15131 2.73929 8.36118 2.62653 8.5333C2.51377 8.70543 2.33726 8.82572 2.13582 8.86772C2.03608 8.88852 1.93321 8.88946 1.8331 8.8705C1.733 8.85153 1.63762 8.81303 1.5524 8.75719C1.46718 8.70136 1.39378 8.62928 1.33642 8.54507C1.27906 8.46087 1.23887 8.36619 1.21811 8.26644L0.835971 6.43324C0.766738 6.10656 0.763171 5.76938 0.825437 5.4413C0.887702 5.11322 1.01457 4.80079 1.19867 4.52219C1.38073 4.24281 1.61637 4.0023 1.89197 3.81457C2.16756 3.62684 2.47765 3.49561 2.80428 3.42847C3.46353 3.29207 4.14995 3.42272 4.713 3.79177C5.27605 4.16082 5.66974 4.73812 5.8077 5.39705L10.6654 28.7217C10.6888 28.8346 10.6868 28.9514 10.6595 29.0634C10.6322 29.1755 10.5802 29.28 10.5074 29.3695C10.4346 29.459 10.3427 29.5311 10.2386 29.5806C10.1344 29.6302 10.0205 29.6558 9.90516 29.6558V29.656Z" fill="#6C6CFF"/>
<path d="M16.6701 34.1115C16.4783 34.1112 16.2933 34.0398 16.151 33.9111C16.0087 33.7824 15.9192 33.6056 15.8996 33.4148C15.88 33.2239 15.9318 33.0326 16.045 32.8777C16.1581 32.7228 16.3247 32.6154 16.5125 32.5761L38.0926 28.0781C38.294 28.0361 38.5039 28.0759 38.676 28.1886C38.8481 28.3014 38.9684 28.4779 39.0104 28.6793C39.0523 28.8807 39.0126 29.0906 38.8998 29.2627C38.7871 29.4348 38.6106 29.5551 38.4092 29.5971L16.8291 34.095C16.7768 34.1059 16.7235 34.1114 16.6701 34.1115Z" fill="#6C6CFF"/>
<path d="M11.0535 37.9999C10.3904 37.9987 9.74123 37.8096 9.18118 37.4546C8.62114 37.0995 8.17314 36.5931 7.88908 35.9939C7.60503 35.3947 7.49654 34.7273 7.57619 34.069C7.65584 33.4107 7.92038 32.7885 8.33914 32.2743C8.7579 31.7602 9.31376 31.3752 9.94232 31.164C10.5709 30.9528 11.2464 30.924 11.8907 31.0809C12.5349 31.2378 13.1216 31.5741 13.5826 32.0507C14.0436 32.5273 14.3601 33.1248 14.4956 33.7739C14.6854 34.6849 14.5056 35.634 13.9957 36.4125C13.4858 37.1909 12.6875 37.7349 11.7765 37.9248C11.5387 37.9745 11.2965 37.9997 11.0535 37.9999ZM11.0646 32.5324C10.9291 32.5324 10.794 32.5464 10.6613 32.5742C10.2823 32.6531 9.93523 32.8427 9.66397 33.1188C9.3927 33.395 9.20945 33.7454 9.13734 34.1258C9.06524 34.5061 9.10752 34.8993 9.25887 35.2556C9.41023 35.6119 9.66384 35.9154 9.98764 36.1275C10.3114 36.3397 10.6909 36.4511 11.078 36.4476C11.4651 36.4441 11.8425 36.3259 12.1624 36.108C12.4823 35.89 12.7304 35.5821 12.8754 35.2231C13.0203 34.8641 13.0555 34.4702 12.9766 34.0912C12.8848 33.6517 12.6447 33.2571 12.2967 32.9734C11.9486 32.6897 11.5137 32.5342 11.0646 32.533V32.5324Z" fill="#070C1A"/>
</svg>
