<svg viewBox="0 0 40 40" fill="none" xmlns="http://www.w3.org/2000/svg">
<path d="M24 20C24 17.7984 22.2016 16 20 16C17.7984 16 16 17.7984 16 20C16 22.2015 17.7984 24 20 24C22.2016 24 24 22.2015 24 20Z" fill="#F97415"/>
<path d="M20 40V32.0062C26.6047 32.0062 32 26.615 32 20.0155C32 13.416 26.6047 8.02479 20 8.02479C13.3953 8.02479 8 13.416 8 20.0155H0C0 8.98528 8.96124 0 20 0C31.0388 0 40 8.9543 40 19.9845C40 31.0147 31.0388 39.969 20 39.969V40Z" fill="#F97415"/>
<path d="M16 24.0125L0 29.3417L7.34884 32.6569L10.6667 40.0001L16.031 24.0125H16Z" fill="#F97415"/>
</svg>
