<svg viewBox="0 0 40 40" fill="none" xmlns="http://www.w3.org/2000/svg">
<path d="M27.8998 7.47591L40 0L34.0077 27.4374L30.3083 32.4277H4.14258L0 27.4374L3.25626 12.4663L10.5588 14.9518L8.3815 24.9326H13.6224L16.8979 9.96146H24.7592L21.4836 24.9326H26.7245L30.5395 7.47591H27.8998Z" fill="#FF176B"/>
<path d="M8.32344 39.9999C9.71072 39.9999 10.809 38.8824 10.809 37.5144C10.809 36.1463 9.69146 35.0288 8.32344 35.0288C6.95542 35.0288 5.83789 36.1463 5.83789 37.5144C5.83789 38.8824 6.95542 39.9999 8.32344 39.9999Z" fill="#FF176B"/>
<path d="M21.3869 39.9999C22.7549 39.9999 23.8725 38.8824 23.8725 37.5144C23.8725 36.1463 22.7549 35.0288 21.3869 35.0288C20.0189 35.0288 18.9014 36.1463 18.9014 37.5144C18.9014 38.8824 20.0189 39.9999 21.3869 39.9999Z" fill="#FF176B"/>
</svg>
