<svg xmlns="http://www.w3.org/2000/svg" viewBox="0 0 49.996 50">
  <g id="Group_421" data-name="Group 421" transform="translate(-483.68 -173.424)">
    <path id="Path_182" data-name="Path 182" d="M505.577,223.424a5.435,5.435,0,0,1-3.87-1.6L485.28,205.4a5.48,5.48,0,0,1,0-7.741l22.627-22.628a5.5,5.5,0,0,1,3.864-1.6h.029l16.369.052a5.483,5.483,0,0,1,5.456,5.457l.051,16.368a5.5,5.5,0,0,1-1.6,3.893l-22.628,22.627A5.435,5.435,0,0,1,505.577,223.424Zm6.2-47.422a2.906,2.906,0,0,0-2.043.847L487.1,199.476a2.895,2.895,0,0,0,0,4.1L503.529,220a2.9,2.9,0,0,0,4.1,0l22.627-22.627a2.9,2.9,0,0,0,.847-2.055v0l-.052-16.372a2.9,2.9,0,0,0-2.885-2.886L511.789,176Zm10.711,14.559a5.911,5.911,0,0,1-4.205-1.742h0a5.945,5.945,0,1,1,4.205,1.742Zm0-9.31A3.366,3.366,0,0,0,520.1,187h0a3.366,3.366,0,1,0,2.382-5.745Z" fill="#3a3a3a"/>
  </g>
</svg>
