<svg xmlns="http://www.w3.org/2000/svg" viewBox="0 0 45.945 50">
  <g id="Group_423" data-name="Group 423" transform="translate(-548.547 -170.891)">
    <path id="Path_185" data-name="Path 185" d="M590.046,200.021l3.459-12.847a4.647,4.647,0,0,0-1.2-4.48L591.61,182l-3.78,3.78a4.693,4.693,0,1,1-4.167-4.168l3.78-3.779-.691-.692a4.633,4.633,0,0,0-4.48-1.2l-12.856,3.451a4.73,4.73,0,0,0-2.075,1.2L549.9,198.037a4.629,4.629,0,0,0,.008,6.547l14.955,14.955a4.629,4.629,0,0,0,6.539,0L588.843,202.1A4.6,4.6,0,0,0,590.046,200.021ZM570.611,211.7l-12.872-12.872,1.647-1.647,12.872,12.872Zm5.2-5.2-12.872-12.871,1.647-1.647,12.872,12.871Z" fill="#3a3a3a"/>
    <path id="Path_186" data-name="Path 186" d="M587.134,174.189a1.01,1.01,0,0,0,1.429,0l.734-.734a1.86,1.86,0,0,1,2.631,2.631l-9.486,9.486A1.01,1.01,0,0,0,583.871,187l9.486-9.486a3.881,3.881,0,0,0-5.489-5.489l-.734.734A1.012,1.012,0,0,0,587.134,174.189Z" fill="#3a3a3a"/>
  </g>
</svg>
