<svg xmlns="http://www.w3.org/2000/svg" viewBox="0 0 50.003 50">
  <g id="Group_426" data-name="Group 426" transform="translate(-12861.749 -5903.771)">
    <g id="Group_422" data-name="Group 422" transform="translate(12240.877 5731.109)">
      <path id="Path_183" data-name="Path 183" d="M667.034,199.761l3.633-13.513a6.171,6.171,0,0,0-1.591-5.943l-.775-.776-1.8,1.8.776.776a3.612,3.612,0,0,1,.929,3.478l-3.631,13.51a3.631,3.631,0,0,1-.933,1.614l-18.35,18.349a3.6,3.6,0,0,1-5.087,0l-15.727-15.728a3.6,3.6,0,0,1,0-5.087L642.823,179.9a3.617,3.617,0,0,1,1.612-.933l13.513-3.628a3.61,3.61,0,0,1,3.48.929l.772.773,1.8-1.8-.772-.773a6.172,6.172,0,0,0-5.944-1.59l-13.517,3.63a6.179,6.179,0,0,0-2.752,1.592L622.67,196.441a6.156,6.156,0,0,0,0,8.7L638.4,220.864a6.156,6.156,0,0,0,8.7,0l18.35-18.349A6.183,6.183,0,0,0,667.034,199.761Z" fill="#3a3a3a"/>
      <path id="Path_184" data-name="Path 184" d="M651.937,182.826a6.2,6.2,0,1,0,9.578,1l8.52-8.52-1.8-1.8-8.52,8.519A6.211,6.211,0,0,0,651.937,182.826Zm6.967,6.967a3.651,3.651,0,1,1,0-5.163A3.656,3.656,0,0,1,658.9,189.793Z" fill="#3a3a3a"/>
    </g>
    <g id="Group_424" data-name="Group 424" transform="translate(12240.877 5731.109)">
      <rect id="Rectangle_1549" data-name="Rectangle 1549" width="2" height="15.629" transform="translate(638.278 194.204) rotate(-45)" fill="#3a3a3a"/>
    </g>
    <g id="Group_425" data-name="Group 425" transform="translate(12240.877 5731.109)">
      <rect id="Rectangle_1550" data-name="Rectangle 1550" width="2" height="15.629" transform="translate(633.821 198.661) rotate(-45)" fill="#3a3a3a"/>
    </g>
  </g>
</svg>
