<svg xmlns="http://www.w3.org/2000/svg" fill="none" viewBox="0 0 24 24">
  <path stroke="currentColor" stroke-linecap="round" stroke-linejoin="round" stroke-width="1.5"
    d="M2 3h2.128a1 1 0 0 1 .991.863l1.762 12.774a1 1 0 0 0 .99.863H18.5" />
  <path stroke="currentColor" stroke-linecap="round" stroke-linejoin="round" stroke-width="1.5"
    d="M10.5 19.25a1.75 1.75 0 1 1-3.5 0 1.75 1.75 0 0 1 3.5 0Zm9.75 0a1.75 1.75 0 1 1-3.5 0 1.75 1.75 0 0 1 3.5 0ZM5.5 5h15.304a1 1 0 0 1 .984 1.177l-1.152 6.403a1 1 0 0 1-.898.82L7 14.5" />
  <path stroke="currentColor" stroke-linecap="round" stroke-width="1.5"
    d="M13.745 7.5v4M11.75 9.505h4" />
</svg>