<svg xmlns="http://www.w3.org/2000/svg" fill="currentColor" viewBox="0 0 24 24">
  <path fill-rule="evenodd" d="M5.862 3.76A1.75 1.75 0 0 0 4.13 2.25H2a.75.75 0 0 0 0 1.5h2.129a.25.25 0 0 1 .247.216l1.762 12.773c.059.427.27.8.572 1.069a2.5 2.5 0 1 0 4.33.442h5.17a2.5 2.5 0 1 0 2.29-1.5H7.871a.25.25 0 0 1-.247-.216l-.183-1.32 12.36-1.068a1.75 1.75 0 0 0 1.573-1.433l1.152-6.403a1.75 1.75 0 0 0-1.722-2.06H5.93l-.068-.49ZM7.75 19.25a1 1 0 1 1 2 0 1 1 0 0 1-2 0Zm9.75 0a1 1 0 1 1 2 0 1 1 0 0 1-2 0Zm-4.505-7.75v-1.245H11.75a.75.75 0 0 1 0-1.5h1.245V7.5a.75.75 0 0 1 1.5 0v1.255h1.255a.75.75 0 0 1 0 1.5h-1.255V11.5a.75.75 0 0 1-1.5 0Z" clip-rule="evenodd"/>
</svg>
