<svg xmlns="http://www.w3.org/2000/svg" fill="currentColor" viewBox="0 0 24 24">
  <path fill-rule="evenodd" d="M20 10.25a.75.75 0 0 1 .75.75v6a.75.75 0 0 1-1.5 0v-6a.75.75 0 0 1 .75-.75Zm-16 0a.75.75 0 0 1 .75.75v6a.75.75 0 0 1-1.5 0v-6a.75.75 0 0 1 .75-.75ZM8.05 1.4a.75.75 0 0 0-.15 1.05l1.153 1.537A6.249 6.249 0 0 0 5.75 9.5v.5h12.5v-.5a6.249 6.249 0 0 0-3.303-5.513L16.1 2.45a.75.75 0 1 0-1.2-.9l-1.41 1.879a6.266 6.266 0 0 0-2.98 0L9.1 1.55a.75.75 0 0 0-1.05-.15ZM9.74 8a.75.75 0 0 1 .75-.75h.01a.75.75 0 0 1 0 1.5h-.01A.75.75 0 0 1 9.74 8Zm3.75-.75a.75.75 0 0 0 0 1.5h.01a.75.75 0 0 0 0-1.5h-.01Z" clip-rule="evenodd"/>
  <path d="M5.75 11.5V17a2.75 2.75 0 0 0 2.75 2.75h.25V22a.75.75 0 0 0 1.5 0v-2.25h4V22a.75.75 0 0 0 1.5 0v-2.261A2.75 2.75 0 0 0 18.25 17v-5.5H5.75Z"/>
</svg>
