<svg xmlns="http://www.w3.org/2000/svg" fill="currentColor" viewBox="0 0 24 24">
  <path fill-rule="evenodd" d="M12 1.25C6.063 1.25 1.25 6.063 1.25 12S6.063 22.75 12 22.75 22.75 17.937 22.75 12 17.937 1.25 12 1.25ZM6.25 9.5A.75.75 0 0 1 7 8.75c.549 0 1.303.068 1.982.285.632.202 1.458.619 1.704 1.493.043.152.064.31.064.472 0 .527-.197 1.1-.77 1.322-.493.192-.974-.001-1.25-.237-.277-.238-.62-.793-.262-1.39.044-.074.096-.14.153-.2a2.804 2.804 0 0 0-.095-.031C8.04 10.309 7.45 10.25 7 10.25a.75.75 0 0 1-.75-.75Zm8.768-.465c.678-.217 1.433-.285 1.982-.285a.75.75 0 0 1 0 1.5c-.451 0-1.041.059-1.526.214-.033.01-.065.021-.095.032.057.059.109.125.153.2.359.596.015 1.151-.262 1.389-.276.236-.758.429-1.25.237-.573-.223-.77-.795-.77-1.322 0-.162.021-.32.064-.472.246-.874 1.072-1.291 1.704-1.493Zm-6.347 8.3C9.262 16.153 10.58 15.5 12 15.5c1.42 0 2.738.653 3.33 1.835a.75.75 0 1 0 1.34-.67C15.763 14.847 13.83 14 12 14s-3.762.847-4.67 2.665a.75.75 0 0 0 1.34.67Z" clip-rule="evenodd"/>
</svg>
