<svg xmlns="http://www.w3.org/2000/svg" fill="none" viewBox="0 0 24 24">
  <path stroke="currentColor" stroke-linejoin="round" stroke-width="1.5" d="M19.489 8.963c-.114.089-2.127 1.23-2.127 3.768 0 2.936 2.561 3.975 2.638 4-.012.064-.407 1.423-1.35 2.808-.841 1.219-1.72 2.435-3.056 2.435-1.337 0-1.68-.781-3.223-.781-1.504 0-2.039.807-3.261.807-1.223 0-2.075-1.128-3.056-2.512C4.918 17.86 4 15.335 4 12.938 4 9.09 6.484 7.05 8.93 7.05c1.298 0 2.381.859 3.197.859.776 0 1.987-.91 3.465-.91.56 0 2.572.051 3.897 1.963ZM14.59 4.415c.533-.64.91-1.527.91-2.415 0-.123-.01-.248-.033-.349-.867.033-1.9.585-2.522 1.315-.489.561-.945 1.45-.945 2.349 0 .135.022.27.033.314.055.01.144.022.233.022.778 0 1.758-.527 2.323-1.236Z"/>
</svg>
