<svg xmlns="http://www.w3.org/2000/svg" fill="currentColor" viewBox="0 0 24 24">
  <path d="M20.054 8.58c-.123.096-2.287 1.337-2.287 4.095 0 3.191 2.754 4.32 2.836 4.348-.012.069-.437 1.546-1.452 3.051-.904 1.325-1.849 2.647-3.286 2.647s-1.806-.85-3.465-.85c-1.617 0-2.192.878-3.506.878-1.315 0-2.232-1.226-3.286-2.73-1.222-1.768-2.209-4.514-2.209-7.12 0-2.07.655-3.658 1.636-4.735 1-1.097 2.337-1.662 3.664-1.662 1.397 0 2.562.933 3.439.933.834 0 2.136-.989 3.725-.989.602 0 2.767.056 4.19 2.133Zm-4.945-3.904a5.04 5.04 0 0 0 .84-1.467 4.462 4.462 0 0 0 .282-1.528c0-.152-.013-.307-.04-.432-1.07.04-2.342.725-3.109 1.63-.602.697-1.164 1.797-1.164 2.913 0 .168.027.336.04.39.068.013.178.028.287.028.96 0 2.167-.654 2.864-1.534Z"/>
</svg>
