<svg xmlns="http://www.w3.org/2000/svg" fill="currentColor" viewBox="0 0 24 24">
  <path fill-rule="evenodd" d="M14.5 1.25a6.25 6.25 0 0 1 4.25 10.83V16a.75.75 0 0 1-.75.75H7a2.25 2.25 0 0 0 0 4.5h11a.75.75 0 0 1 0 1.5H7A3.75 3.75 0 0 1 3.25 19V7A3.75 3.75 0 0 1 7 3.25h2.92c1.141-1.23 2.77-2 4.58-2ZM7 4.75A2.25 2.25 0 0 0 4.75 7v9A3.733 3.733 0 0 1 7 15.25h10.25v-2.137A6.25 6.25 0 0 1 8.887 4.75H7Zm7.5-.5a.75.75 0 0 0-.75.75v3a.75.75 0 0 0 .415.67l2 1a.75.75 0 0 0 .67-1.34l-1.585-.794V5a.75.75 0 0 0-.75-.75Z" clip-rule="evenodd"/>
  <path d="M16 19.75a.75.75 0 0 0 0-1.5H7a.75.75 0 0 0 0 1.5h9Z"/>
</svg>
