<svg xmlns="http://www.w3.org/2000/svg" fill="currentColor" viewBox="0 0 24 24">
  <path fill-rule="evenodd" d="M7 1.25A3.75 3.75 0 0 0 3.25 5v14A3.75 3.75 0 0 0 7 22.75h13a.75.75 0 0 0 .75-.75V8a.75.75 0 0 0-.75-.75H7a2.25 2.25 0 0 1 0-4.5h13a.75.75 0 0 0 0-1.5H7Zm6.75 17.25v-1.75h-3.5v1.75a.75.75 0 0 1-1.5 0v-3.092c0-.74.22-1.464.63-2.08l1.219-1.828a1.684 1.684 0 0 1 2.802 0l1.22 1.828c.41.616.629 1.34.629 2.08V18.5a.75.75 0 0 1-1.5 0Z" clip-rule="evenodd"/>
  <path fill-rule="evenodd" d="M11.847 12.332a.184.184 0 0 1 .306 0l1.22 1.828c.216.326.344.701.371 1.09h-3.488a2.25 2.25 0 0 1 .372-1.09l1.219-1.828Z" clip-rule="evenodd"/>
  <path d="M17 4.25a.75.75 0 0 1 0 1.5H7a.75.75 0 0 1 0-1.5h10Z"/>
</svg>
