<svg xmlns="http://www.w3.org/2000/svg" fill="currentColor" viewBox="0 0 24 24">
  <path fill-rule="evenodd" d="M15.76 1.376a.751.751 0 0 1 1.48.247l-.104.626H21a.751.751 0 0 1 .749.75h.002v16A2.75 2.75 0 0 1 19 21.75H8a2.75 2.75 0 0 1-2.736-2.468L5.251 19v-.75H3.314a1.75 1.75 0 0 1-1.688-2.216L5.278 2.8l.043-.117A.75.75 0 0 1 6 2.25h3.614l.145-.873a.751.751 0 0 1 1.48.247l-.104.626h1.479l.145-.873a.751.751 0 0 1 1.48.247l-.104.626h1.479l.145-.873Zm2.368 14.855a2.751 2.751 0 0 1-2.65 2.018H6.75V19l.006.128A1.25 1.25 0 0 0 8 20.251h11c.69 0 1.25-.56 1.25-1.25V8.538l-2.123 7.693Zm-5.152-8.812a.75.75 0 0 0-.81-.09l-2 1a.75.75 0 0 0 .67 1.341l.5-.25-.909 3.33h-.926a.75.75 0 0 0 0 1.5h3a.75.75 0 0 0 0-1.5h-.518l1.241-4.553a.75.75 0 0 0-.248-.778Z" clip-rule="evenodd"/>
</svg>
