<svg xmlns="http://www.w3.org/2000/svg" fill="none" viewBox="0 0 24 24">
  <path stroke="currentColor" stroke-linecap="round" stroke-linejoin="round" stroke-width="1.5" d="M6 3h15v16a2 2 0 0 1-2 2H8a2 2 0 0 1-2-2v-1.5"/>
  <path stroke="currentColor" stroke-linecap="round" stroke-linejoin="round" stroke-width="1.5" d="M6 3h15l-3.595 13.032a2 2 0 0 1-1.928 1.468H3.313a1 1 0 0 1-.964-1.266L6 3Z"/>
  <path stroke="currentColor" stroke-linecap="round" stroke-linejoin="round" stroke-width="1.5" d="M11 13.5 12.5 8l-2 1m-1 4.5h3m4-12-.5 3m-2.5-3-.5 3m-2.5-3-.5 3"/>
</svg>
