<svg xmlns="http://www.w3.org/2000/svg" fill="currentColor" viewBox="0 0 24 24">
  <path fill-rule="evenodd" d="M17.5 2a1 1 0 1 0-2 0v.75H13V2a1 1 0 1 0-2 0v.75H8.5V2a1 1 0 0 0-2 0v.75H5A2.75 2.75 0 0 0 2.25 5.5v14A2.75 2.75 0 0 0 5 22.25h14a2.75 2.75 0 0 0 2.75-2.75v-14A2.75 2.75 0 0 0 19 2.75h-1.5V2Zm-1.49 7a1 1 0 0 1 0 2c-.553 0-1.01-.448-1.01-1s.457-1 1.01-1Zm-3 1a1 1 0 0 0-1-1c-.553 0-1.01.448-1.01 1s.457 1 1.01 1a1 1 0 0 0 1-1Zm-5-1a1 1 0 1 1 0 2C7.457 11 7 10.552 7 10s.457-1 1.01-1Zm1 4.5a1 1 0 0 0-1-1c-.553 0-1.01.448-1.01 1s.457 1 1.01 1a1 1 0 0 0 1-1Zm3-1a1 1 0 1 1 0 2c-.553 0-1.01-.448-1.01-1s.457-1 1.01-1Zm5 1a1 1 0 0 0-1-1c-.553 0-1.01.448-1.01 1s.457 1 1.01 1a1 1 0 0 0 1-1Zm-1 2.5a1 1 0 0 1 0 2c-.553 0-1.01-.448-1.01-1s.457-1 1.01-1Zm-3 1a1 1 0 0 0-1-1c-.553 0-1.01.448-1.01 1s.457 1 1.01 1a1 1 0 0 0 1-1Zm-5-1a1 1 0 1 1 0 2C7.457 18 7 17.552 7 17s.457-1 1.01-1Z" clip-rule="evenodd"/>
</svg>
