<svg xmlns="http://www.w3.org/2000/svg" fill="currentColor" viewBox="0 0 24 24">
  <path d="M8.01 12.5a1 1 0 1 1 0 2H8a1 1 0 1 1 0-2h.01Zm0 3.5a1 1 0 1 1 0 2H8a1 1 0 1 1 0-2h.01Zm4-3.5a1 1 0 1 1 0 2H12a1 1 0 1 1 0-2h.01Zm0 3.5a1 1 0 1 1 0 2H12a1 1 0 1 1 0-2h.01Zm4-3.5a1 1 0 1 1 0 2H16a1 1 0 1 1 0-2h.01Zm0 3.5a1 1 0 1 1 0 2H16a1 1 0 1 1 0-2h.01Z"/>
  <path fill-rule="evenodd" d="M2.25 9v10.5A2.75 2.75 0 0 0 5 22.25h14a2.75 2.75 0 0 0 2.75-2.75v-14A2.75 2.75 0 0 0 19 2.75h-2V2a1 1 0 1 0-2 0v.75H9V2a1 1 0 1 0-2 0v.75H5A2.75 2.75 0 0 0 2.25 5.5V9Zm18 .75H3.75v9.75c0 .69.56 1.25 1.25 1.25h14c.69 0 1.25-.56 1.25-1.25V9.75Z" clip-rule="evenodd"/>
</svg>
