<svg xmlns="http://www.w3.org/2000/svg" fill="currentColor" viewBox="0 0 24 24">
  <path fill-rule="evenodd" d="M21 2.25a.75.75 0 0 1 .75.75v6.5a.75.75 0 0 1-.22.53l-1.28 1.28V18a.75.75 0 0 1-.75.75h-2.25V21a.75.75 0 0 1-.75.75H3a.75.75 0 0 1-.75-.75V5c0-.027.001-.053.004-.08A2.748 2.748 0 0 1 5 2.25h16ZM5 3.75a1.25 1.25 0 1 0 0 2.5h11.5a.75.75 0 0 1 .75.75v10.25h1.5V11c0-.199.08-.39.22-.53l1.28-1.28V3.75H5Zm5.25 10.75a.75.75 0 0 0-.75-.75h-3a.75.75 0 0 0 0 1.5h3a.75.75 0 0 0 .75-.75Zm-.75 2.25a.75.75 0 0 1 0 1.5h-3a.75.75 0 0 1 0-1.5h3Z" clip-rule="evenodd"/>
</svg>
