<svg xmlns="http://www.w3.org/2000/svg" fill="currentColor" viewBox="0 0 24 24">
  <path fill-rule="evenodd" d="M7 1.25A3.75 3.75 0 0 0 3.25 5v14A3.75 3.75 0 0 0 7 22.75h13a.75.75 0 0 0 .75-.75v-8H15v-3h5.75V8a.75.75 0 0 0-.75-.75H7a2.25 2.25 0 0 1 0-4.5h13a.75.75 0 0 0 0-1.5H7Zm3.5 13.5a.75.75 0 0 1 0 1.5h-3a.75.75 0 0 1 0-1.5h3Zm.75 3.75a.75.75 0 0 0-.75-.75h-3a.75.75 0 0 0 0 1.5h3a.75.75 0 0 0 .75-.75Z" clip-rule="evenodd"/>
  <path d="M17 4.25a.75.75 0 0 1 0 1.5H7a.75.75 0 0 1 0-1.5h10Z"/>
</svg>
