<svg xmlns="http://www.w3.org/2000/svg" fill="currentColor" viewBox="0 0 24 24">
  <path fill-rule="evenodd" d="M19 3.25c.966 0 1.75.784 1.75 1.75v1.25H21c.966 0 1.75.784 1.75 1.75v11A1.75 1.75 0 0 1 21 20.75H6A1.75 1.75 0 0 1 4.25 19v-.25H3A1.75 1.75 0 0 1 1.25 17V8c0-.966.784-1.75 1.75-1.75h8.586a.25.25 0 0 0 .177-.073l2.414-2.414a1.75 1.75 0 0 1 1.237-.513H19Zm-3.586 1.5a.25.25 0 0 0-.177.073l-2.414 2.414a1.75 1.75 0 0 1-1.237.513H3a.25.25 0 0 0-.25.25v9c0 .138.112.25.25.25h1.25V11c0-.966.784-1.75 1.75-1.75h7.586a.25.25 0 0 0 .177-.073l2.414-2.414a1.75 1.75 0 0 1 1.237-.513h1.836V5a.25.25 0 0 0-.25-.25h-3.586Z" clip-rule="evenodd"/>
</svg>
