<svg xmlns="http://www.w3.org/2000/svg" fill="currentColor" viewBox="0 0 24 24">
  <path fill-rule="evenodd" d="M8.586 3.25c.464 0 .91.185 1.237.513L11.81 5.75H18a2.75 2.75 0 0 1 2.75 2.75v1.75H22a.75.75 0 0 1 .686 1.055l-4 9a.75.75 0 0 1-.686.445H2a.75.75 0 0 1-.749-.75L1.25 5c0-.966.784-1.75 1.75-1.75h5.586ZM3 4.75a.25.25 0 0 0-.25.25v11.465l2.564-5.77.052-.096A.75.75 0 0 1 6 10.25h13.25V8.5c0-.69-.56-1.25-1.25-1.25H8a.75.75 0 0 1 0-1.5h1.69l-.927-.927a.25.25 0 0 0-.177-.073H3Z" clip-rule="evenodd"/>
</svg>
