<svg xmlns="http://www.w3.org/2000/svg" fill="currentColor" viewBox="0 0 24 24">
  <path fill-rule="evenodd" d="M11 2.5V1.296A10.753 10.753 0 0 0 1.296 11H2.5a1 1 0 1 1 0 2H1.296A10.753 10.753 0 0 0 11 22.704V21.5a1 1 0 1 1 2 0v1.204A10.753 10.753 0 0 0 22.704 13H21.5a1 1 0 1 1 0-2h1.204A10.753 10.753 0 0 0 13 1.296V2.5a1 1 0 1 1-2 0Zm5.707 4.793a1 1 0 0 0-1.414 0L12 10.586l-1.793-1.793-.076-.068a1 1 0 0 0-1.338 1.482L10.586 12l-.793.793a1 1 0 1 0 1.414 1.414l.793-.793.793.793.076.068a1 1 0 0 0 1.406-1.406l-.068-.076-.793-.793 3.293-3.293a1 1 0 0 0 0-1.414Z" clip-rule="evenodd"/>
</svg>
