<svg xmlns="http://www.w3.org/2000/svg" fill="currentColor" viewBox="0 0 24 24">
  <path fill-rule="evenodd" d="M15.5 1.25a7.25 7.25 0 0 1 7.25 7.25 7.222 7.222 0 0 1-2.001 4.997L20.75 16A6.75 6.75 0 0 1 14 22.75H2a.75.75 0 0 1-.75-.75v-7A6.75 6.75 0 0 1 8 8.25h.257a7.248 7.248 0 0 1 7.243-7Zm0 1.5a5.75 5.75 0 1 0 0 11.5 5.75 5.75 0 0 0 0-11.5ZM14 18.5a1 1 0 0 0-1-1H6a1 1 0 1 0 0 2h7a1 1 0 0 0 1-1Zm-5-5a1 1 0 1 1 0 2H6a1 1 0 1 1 0-2h3Z" clip-rule="evenodd"/>
  <path d="M14.5 5.111a1 1 0 1 1 2 0v3.3l1.485.826.087.054a1 1 0 0 1-.966 1.739l-.091-.045-2-1.111A1 1 0 0 1 14.5 9V5.11Z"/>
</svg>
