<svg
    viewBox="0 0 24 24"
    fill="none"
    xmlns="http://www.w3.org/2000/svg"
>
    <path
        d="M3 5C3 3.89543 3.89543 3 5 3H19C20.1046 3 21 3.89543 21 5V13C21 14.1046 20.1046 15 19 15H5C3.89543 15 3 14.1046 3 13V5Z"
        stroke="currentColor"
        strokeWidth="1.5"
    />
    <path
        d="M21.0002 12.6716L19.4144 11.0858C18.6333 10.3047 17.367 10.3047 16.5859 11.0858L15.9144 11.7574C15.1333 12.5384 13.867 12.5384 13.0859 11.7574L10.4144 9.08579C9.63332 8.30474 8.36699 8.30474 7.58594 9.08579L3.33594 13.3358"
        stroke="currentColor"
        strokeWidth="1.5"
        strokeLinecap="round"
    />
    <path
        d="M16.25 7C16.25 7.82843 15.5784 8.5 14.75 8.5C13.9216 8.5 13.25 7.82843 13.25 7C13.25 6.17157 13.9216 5.5 14.75 5.5C15.5784 5.5 16.25 6.17157 16.25 7Z"
        stroke="currentColor"
        strokeWidth="1.5"
    />
    <path
        d="M3 18.5C3 17.9477 3.44772 17.5 4 17.5H6.25C6.80228 17.5 7.25 17.9477 7.25 18.5V20C7.25 20.5523 6.80228 21 6.25 21H4C3.44772 21 3 20.5523 3 20V18.5Z"
        stroke="currentColor"
        strokeWidth="1.5"
    />
    <path
        d="M10 18.5C10 17.9477 10.4477 17.5 11 17.5H13.25C13.8023 17.5 14.25 17.9477 14.25 18.5V20C14.25 20.5523 13.8023 21 13.25 21H11C10.4477 21 10 20.5523 10 20V18.5Z"
        stroke="currentColor"
        strokeWidth="1.5"
    />
    <path
        d="M17 18.5C17 17.9477 17.4477 17.5 18 17.5H20C20.5523 17.5 21 17.9477 21 18.5V20C21 20.5523 20.5523 21 20 21H18C17.4477 21 17 20.5523 17 20V18.5Z"
        stroke="currentColor"
        strokeWidth="1.5"
    />
</svg>