<svg
    viewBox="0 0 24 24"
    fill="none"
    xmlns="http://www.w3.org/2000/svg"
>
    <path
        d="M16.75 7C16.75 8.10457 15.8546 9 14.75 9C13.6454 9 12.75 8.10457 12.75 7C12.75 5.89543 13.6454 5 14.75 5C15.8546 5 16.75 5.89543 16.75 7Z"
        fill="currentColor"
    />
    <path
        d="M6.5 18.5C6.5 18.3619 6.38807 18.25 6.25 18.25H4C3.86193 18.25 3.75 18.3619 3.75 18.5V20C3.75 20.1381 3.86193 20.25 4 20.25H6.25C6.38807 20.25 6.5 20.1381 6.5 20V18.5ZM8 20C8 20.9665 7.2165 21.75 6.25 21.75H4C3.0335 21.75 2.25 20.9665 2.25 20V18.5C2.25 17.5335 3.0335 16.75 4 16.75H6.25C7.2165 16.75 8 17.5335 8 18.5V20Z"
        fill="currentColor"
    />
    <path
        d="M13.5 18.5C13.5 18.3619 13.3881 18.25 13.25 18.25H11C10.8619 18.25 10.75 18.3619 10.75 18.5V20C10.75 20.1381 10.8619 20.25 11 20.25H13.25C13.3881 20.25 13.5 20.1381 13.5 20V18.5ZM15 20C15 20.9665 14.2165 21.75 13.25 21.75H11C10.0335 21.75 9.25 20.9665 9.25 20V18.5C9.25 17.5335 10.0335 16.75 11 16.75H13.25C14.2165 16.75 15 17.5335 15 18.5V20Z"
        fill="currentColor"
    />
    <path
        d="M20.25 18.5C20.25 18.3619 20.1381 18.25 20 18.25H18C17.8619 18.25 17.75 18.3619 17.75 18.5V20C17.75 20.1381 17.8619 20.25 18 20.25H20C20.1381 20.25 20.25 20.1381 20.25 20V18.5ZM21.75 20C21.75 20.9665 20.9665 21.75 20 21.75H18C17.0335 21.75 16.25 20.9665 16.25 20V18.5C16.25 17.5335 17.0335 16.75 18 16.75H20C20.9665 16.75 21.75 17.5335 21.75 18.5V20Z"
        fill="currentColor"
    />
    <path
        fillRule="evenodd"
        clipRule="evenodd"
        d="M19 15.75C20.5188 15.75 21.75 14.5188 21.75 13V5C21.75 3.4812 20.5188 2.25 19 2.25H5C3.4812 2.25 2.25 3.4812 2.25 5V13C2.25 14.5188 3.4812 15.75 5 15.75H19ZM3.75 11.8613V5C3.75 4.30957 4.30963 3.75 5 3.75H19C19.6904 3.75 20.25 4.30957 20.25 5V10.8613L19.9442 10.5557C18.8703 9.48169 17.1295 9.48169 16.0555 10.5557L15.3837 11.2266C14.8956 11.7146 14.1042 11.7146 13.6161 11.2266L10.9442 8.55566C9.8703 7.48169 8.12946 7.48169 7.05554 8.55566L3.75 11.8613Z"
        fill="currentColor"
    />
</svg>
	