<svg xmlns="http://www.w3.org/2000/svg" fill="currentColor" viewBox="0 0 24 24">
  <path d="m21.882 10.42-.103-.438h-9.485v4.036h5.667c-.588 2.81-3.318 4.289-5.549 4.289-1.623 0-3.333-.686-4.465-1.79a6.412 6.412 0 0 1-1.902-4.524c0-1.7.76-3.402 1.865-4.52 1.106-1.12 2.776-1.745 4.437-1.745 1.902 0 3.264 1.015 3.774 1.478l2.853-2.853c-.837-.74-3.136-2.603-6.72-2.603-2.764 0-5.414 1.065-7.352 3.007C2.99 6.669 2 9.434 2 12c0 2.566.937 5.193 2.79 7.12 1.98 2.056 4.784 3.13 7.671 3.13 2.627 0 5.117-1.035 6.892-2.913C21.098 17.488 22 14.93 22 12.249c0-1.129-.113-1.8-.118-1.829Z"/>
</svg>
