<svg xmlns="http://www.w3.org/2000/svg" fill="none" viewBox="0 0 24 24">
  <path stroke="currentColor" stroke-linejoin="round" stroke-width="1.5" d="m21.882 10.459-.103-.428h-9.485v3.938h5.667c-.588 2.741-3.318 4.184-5.549 4.184-1.623 0-3.333-.67-4.465-1.746a6.25 6.25 0 0 1-1.4-2.021 6.152 6.152 0 0 1-.502-2.393c0-1.66.76-3.318 1.865-4.41 1.106-1.091 2.776-1.702 4.437-1.702 1.902 0 3.264.99 3.774 1.442l2.853-2.784C18.137 3.818 15.838 2 12.254 2 9.49 2 6.84 3.039 4.903 4.933 2.99 6.8 2 9.497 2 12s.937 5.066 2.79 6.946C6.77 20.952 9.574 22 12.46 22c2.627 0 5.117-1.01 6.892-2.842 1.745-1.803 2.647-4.3 2.647-6.915 0-1.101-.113-1.755-.118-1.784Z"/>
</svg>
