<svg xmlns="http://www.w3.org/2000/svg" fill="none" viewBox="0 0 24 24">
  <path stroke="currentColor" stroke-linecap="round" stroke-linejoin="round" stroke-width="1.5" d="m4.098 13.848 7.52 7.519a.542.542 0 0 0 .765 0l7.52-7.52a5.678 5.678 0 0 0 0-8.028 5.047 5.047 0 0 0-7.138 0l-.711.71a.076.076 0 0 1-.107 0l-.711-.71a5.047 5.047 0 0 0-7.138 0 5.678 5.678 0 0 0 0 8.029Z"/>
  <path stroke="currentColor" stroke-linecap="round" stroke-linejoin="round" stroke-width="1.5" d="M16.334 7.48c.553 0 1.107.21 1.53.633.547.548.78 1.292.695 2.006"/>
</svg>
