<svg xmlns="http://www.w3.org/2000/svg" fill="currentColor" viewBox="0 0 24 24">
  <path fill-rule="evenodd" d="M19.87 3.07a.75.75 0 0 1 1.06 1.061l-16.799 16.8a.75.75 0 0 1-1.06-1.06l1.857-1.859c-1.397-1.145-2.487-2.454-3.25-3.516a20.19 20.19 0 0 1-1.255-1.985 9.52 9.52 0 0 1-.067-.127l-.025-.049a.758.758 0 0 1 0-.673l.015-.03.016-.03.016-.03.007-.014a18.243 18.243 0 0 1 .72-1.217A20.435 20.435 0 0 1 3.33 7.486c1.938-2.067 4.873-4.237 8.672-4.238 2.269 0 4.231.778 5.852 1.84L19.87 3.07ZM8.874 14.067A3.73 3.73 0 0 1 8.25 12 3.75 3.75 0 0 1 12 8.25a3.73 3.73 0 0 1 2.066.624l-5.192 5.192Zm11.657-6.405c.205.008.397.1.533.253a20.672 20.672 0 0 1 1.933 2.583 17.693 17.693 0 0 1 .661 1.138l.01.019a.77.77 0 0 1 .004.68l-.016.03-.032.06-.007.014a18.22 18.22 0 0 1-.72 1.217 20.427 20.427 0 0 1-2.224 2.855c-1.938 2.067-4.872 4.237-8.672 4.237a9.97 9.97 0 0 1-3.243-.545.752.752 0 0 1-.277-1.25l11.5-11.082.057-.05a.753.753 0 0 1 .493-.16Z" clip-rule="evenodd"/>
</svg>
