<svg xmlns="http://www.w3.org/2000/svg" fill="currentColor" viewBox="0 0 24 24">
  <path fill-rule="evenodd" d="M20 1.25a.75.75 0 0 1 0 1.5h-1.25v4.18c0 .92-.46 1.778-1.225 2.288L13.352 12l4.173 2.782a2.75 2.75 0 0 1 1.225 2.288v4.18H20a.75.75 0 0 1 0 1.5H4a.75.75 0 0 1 0-1.5h1.25v-4.18c0-.92.46-1.778 1.225-2.288L10.648 12 6.475 9.218A2.75 2.75 0 0 1 5.25 6.93V2.75H4a.75.75 0 0 1 0-1.5h16ZM13.75 16.5a.75.75 0 0 0-.75-.75h-2a.75.75 0 0 0 0 1.5h2a.75.75 0 0 0 .75-.75Zm.75 2.25a.75.75 0 0 1 0 1.5h-5a.75.75 0 0 1 0-1.5h5Z" clip-rule="evenodd"/>
</svg>
