<svg xmlns="http://www.w3.org/2000/svg" fill="currentColor" viewBox="0 0 24 24">
  <path d="M6.264 9.281a1 1 0 0 1 1.415 1.415L5.165 13.21a3.977 3.977 0 1 0 5.625 5.625l2.514-2.514a1 1 0 0 1 1.415 1.414l-2.515 2.514a5.977 5.977 0 1 1-8.453-8.453L6.264 9.28Zm5.532-5.53a5.977 5.977 0 1 1 8.453 8.453l-2.514 2.515a1 1 0 0 1-1.414-1.415l2.514-2.514a3.977 3.977 0 1 0-5.625-5.625l-2.514 2.514a1.001 1.001 0 0 1-1.415-1.414l2.515-2.514Z"/>
  <path d="M13.793 8.793a1 1 0 1 1 1.414 1.414l-5 5a1 1 0 0 1-1.414-1.414l5-5Z"/>
</svg>
