<svg xmlns="http://www.w3.org/2000/svg" fill="currentColor" viewBox="0 0 24 24">
  <path fill-rule="evenodd" d="M5 2.25A2.75 2.75 0 0 0 2.25 5v14A2.75 2.75 0 0 0 5 21.75h14A2.75 2.75 0 0 0 21.75 19V5A2.75 2.75 0 0 0 19 2.25H5Zm11.15 16.792h2.893v-5.945c0-2.515-1.425-3.731-3.417-3.731-1.992 0-2.83 1.552-2.83 1.552V9.652h-2.79v9.389h2.79v-4.929c0-1.32.607-2.106 1.77-2.106 1.07 0 1.584.755 1.584 2.106v4.929ZM4.96 6.69c0 .957.77 1.732 1.72 1.732s1.719-.775 1.719-1.732-.77-1.733-1.72-1.733S4.96 5.733 4.96 6.69Zm3.188 12.35H5.24V9.654h2.908v9.389Z" clip-rule="evenodd"/>
</svg>
