<svg xmlns="http://www.w3.org/2000/svg" fill="currentColor" viewBox="0 0 24 24">
  <path d="M11.625 22.65 12 22l.375.65a.75.75 0 0 1-.75 0Z"/>
  <path fill-rule="evenodd" d="M11.625 22.65 12 22c.375.65.376.649.376.649l.002-.001.006-.004.02-.012.034-.02.04-.024a19.765 19.765 0 0 0 1.212-.814 22.44 22.44 0 0 0 2.847-2.456c2.058-2.11 4.213-5.239 4.213-9.113 0-4.928-3.9-8.955-8.75-8.955s-8.75 4.027-8.75 8.955c0 3.874 2.155 7.002 4.213 9.113a22.436 22.436 0 0 0 3.788 3.101 12.961 12.961 0 0 0 .344.213l.021.012.006.004.003.001ZM12 6.25a3.75 3.75 0 1 0 0 7.5 3.75 3.75 0 0 0 0-7.5Z" clip-rule="evenodd"/>
</svg>
