<svg xmlns="http://www.w3.org/2000/svg" fill="currentColor" viewBox="0 0 24 24">
  <path fill-rule="evenodd" d="M14.5 3.25c4.542 0 8.25 3.613 8.25 8.102 0 2.519-1.172 4.764-3 6.247V20a.75.75 0 0 1-1.163.626l-2.13-1.404a8.41 8.41 0 0 1-1.957.231 8.323 8.323 0 0 1-4.61-1.382 7.867 7.867 0 0 1-3.075-.06l-1.82 1.127A.75.75 0 0 1 3.85 18.5v-1.87c-1.576-1.222-2.6-3.07-2.6-5.157C1.25 7.7 4.557 4.75 8.5 4.75c.319 0 .634.02.942.057a.755.755 0 0 1 .15.033A8.318 8.318 0 0 1 14.5 3.25ZM8.08 6.265c-3.03.195-5.33 2.505-5.33 5.208 0 1.68.878 3.196 2.276 4.162a.75.75 0 0 1 .324.617v.903l.943-.583a.75.75 0 0 1 .587-.086c.45.12.925.188 1.416.203A7.98 7.98 0 0 1 8.08 6.265Z" clip-rule="evenodd"/>
</svg>
