<svg xmlns="http://www.w3.org/2000/svg" fill="currentColor" viewBox="0 0 24 24">
  <path fill-rule="evenodd" d="M1.25 11.677C1.25 5.687 5.945 1.25 12 1.25s10.75 4.44 10.75 10.43c0 5.99-4.695 10.427-10.75 10.427a11.75 11.75 0 0 1-3.112-.414.864.864 0 0 0-.575.043l-2.134.94a.86.86 0 0 1-1.207-.76l-.059-1.913a.85.85 0 0 0-.288-.613c-2.09-1.87-3.375-4.58-3.375-7.713Zm7.452-1.959-3.157 5.01c-.304.48.287 1.02.739.677l3.391-2.575a.644.644 0 0 1 .777-.003l2.513 1.884a1.612 1.612 0 0 0 2.332-.43l3.161-5.006c.301-.481-.29-1.024-.742-.68l-3.391 2.574a.644.644 0 0 1-.777.003l-2.513-1.884a1.613 1.613 0 0 0-2.333.43Z" clip-rule="evenodd"/>
</svg>
