<svg xmlns="http://www.w3.org/2000/svg" fill="currentColor" viewBox="0 0 24 24">
  <path d="M12 1.25C6.063 1.25 1.25 6.063 1.25 12c0 4.554 2.833 8.448 6.832 10.014-.094-.85-.178-2.159.038-3.087.195-.84 1.26-5.344 1.26-5.344s-.321-.644-.321-1.596c0-1.495.866-2.61 1.945-2.61.917 0 1.36.688 1.36 1.514 0 .922-.587 2.301-.89 3.579-.254 1.07.536 1.943 1.592 1.943 1.91 0 3.379-2.015 3.379-4.923 0-2.574-1.85-4.374-4.49-4.374-3.06 0-4.855 2.295-4.855 4.665 0 .925.356 1.915.8 2.454.088.106.101.2.075.308-.082.34-.263 1.07-.298 1.22-.047.196-.156.238-.36.143-1.343-.625-2.182-2.588-2.182-4.165 0-3.39 2.464-6.505 7.103-6.505 3.729 0 6.627 2.657 6.627 6.209 0 3.705-2.336 6.686-5.578 6.686-1.09 0-2.114-.566-2.464-1.234 0 0-.54 2.053-.67 2.555-.243.934-.898 2.105-1.336 2.819A10.76 10.76 0 0 0 12 22.75c5.937 0 10.75-4.813 10.75-10.75S17.937 1.25 12 1.25Z"/>
</svg>
