<svg xmlns="http://www.w3.org/2000/svg" fill="currentColor" viewBox="0 0 24 24">
  <path fill-rule="evenodd" d="M18.796 6.963c-.367 1.048-1.172 1.993-2.432 2.693a.75.75 0 1 1-.728-1.311c.99-.55 1.517-1.229 1.744-1.878a2.583 2.583 0 0 0-.1-1.941c-.55-1.208-1.999-2.11-3.853-1.618-2.791.74-6.15 1.333-9.695-.024a.75.75 0 1 1 .536-1.401c3.09 1.183 6.062.695 8.774-.025 2.566-.68 4.75.577 5.603 2.445.425.933.517 2.017.151 3.06Z" clip-rule="evenodd"/>
  <path fill-rule="evenodd" d="M19.74 7.294c-.46 1.313-1.45 2.436-2.89 3.236a1.75 1.75 0 1 1-1.7-3.06c.81-.45 1.152-.95 1.286-1.333a1.59 1.59 0 0 0-.066-1.197 1.835 1.835 0 0 0-.101-.19h-4.44c-.73 0-1.43.29-1.945.805l-6.5 6.5a2.75 2.75 0 0 0 0 3.89l6.171 6.171a2.75 2.75 0 0 0 3.89 0l6.5-6.5a2.75 2.75 0 0 0 .805-1.944V6.5c0-.598-.3-1.127-.759-1.442.083.73.01 1.49-.252 2.236Zm-8.71 5.176a.75.75 0 0 0-1.06 1.06l2 2a.75.75 0 0 0 1.06-1.06l-2-2Zm-2.5 1.5a.75.75 0 0 0-1.06 1.06l3 3a.75.75 0 0 0 1.06-1.06l-3-3Z" clip-rule="evenodd"/>
</svg>
