<svg xmlns="http://www.w3.org/2000/svg" fill="none" viewBox="0 0 24 24">
  <path stroke="currentColor" stroke-linecap="round" stroke-linejoin="round" stroke-width="1.5" d="M15.5 5.5h-3.672a2 2 0 0 0-1.414.586l-6.5 6.5a2 2 0 0 0 0 2.828l6.171 6.172a2 2 0 0 0 2.829 0l6.5-6.5A2 2 0 0 0 20 13.672V6.5a1 1 0 0 0-1-1h-.5M8 14.5l3 3m-.5-4.5 2 2"/>
  <path stroke="currentColor" stroke-linecap="round" stroke-linejoin="round" stroke-width="1.5" d="M16 9c4.5-2.5 1.655-7.99-2.766-6.817-2.752.73-5.916 1.27-9.234 0"/>
</svg>
