<svg xmlns="http://www.w3.org/2000/svg" fill="none" viewBox="0 0 24 24">
  <path stroke="currentColor" stroke-linecap="round" stroke-linejoin="round" stroke-width="1.5" d="M12.328 2.5H20.5a1 1 0 0 1 1 1v8.172a2 2 0 0 1-.586 1.414l-8 8a2 2 0 0 1-2.829 0l-7.171-7.172a2 2 0 0 1 0-2.828l8-8a2 2 0 0 1 1.414-.586Z"/>
  <path stroke="currentColor" stroke-width="1.5" d="M18 7.5a1.5 1.5 0 1 1-3 0 1.5 1.5 0 0 1 3 0Z"/>
  <path stroke="currentColor" stroke-linecap="round" stroke-linejoin="round" stroke-width="1.5" d="m8 13 3 3"/>
</svg>
