<svg xmlns="http://www.w3.org/2000/svg" fill="currentColor" viewBox="0 0 24 24">
  <path fill-rule="evenodd" d="M13.875 4.75h2.354a2.751 2.751 0 1 0 0-1.5h-2.354A2.75 2.75 0 0 0 11.125 6v2.028c-1.76.115-3.39.571-4.771 1.281a2.875 2.875 0 1 0-3.964 4.109A5.777 5.777 0 0 0 2 15.5C2 19.642 6.477 23 12 23s10-3.358 10-7.5c0-.722-.136-1.421-.39-2.082a2.875 2.875 0 1 0-3.963-4.109C16.2 8.566 14.48 8.1 12.624 8.014V6c0-.69.56-1.25 1.25-1.25ZM9 14.5a1.5 1.5 0 1 0 0-3 1.5 1.5 0 0 0 0 3Zm0 2.97a.75.75 0 0 0-1.06 1.06c.954.955 2.57 1.345 4.03 1.345 1.46 0 3.075-.39 4.03-1.345a.75.75 0 0 0-1.06-1.06c-.546.545-1.68.905-2.97.905-1.29 0-2.424-.36-2.97-.905ZM16.5 13a1.5 1.5 0 1 1-3 0 1.5 1.5 0 0 1 3 0Z" clip-rule="evenodd"/>
</svg>
