<svg xmlns="http://www.w3.org/2000/svg" fill="currentColor" viewBox="0 0 24 24">
  <path fill-rule="evenodd" d="M15.183 2.612a1.75 1.75 0 0 0-1.706-1.362h-2.953a1.75 1.75 0 0 0-1.706 1.362l-.355 1.562a1.25 1.25 0 0 1-1.587.918L5.25 4.59a1.75 1.75 0 0 0-2.021.782L1.772 7.837a1.75 1.75 0 0 0 .338 2.193l1.16 1.04a1.25 1.25 0 0 1 0 1.862L2.11 13.97a1.75 1.75 0 0 0-.337 2.193l1.455 2.464a1.751 1.751 0 0 0 2.021.783l1.628-.5a1.25 1.25 0 0 1 1.586.917l.355 1.56a1.75 1.75 0 0 0 1.707 1.363h2.952a1.75 1.75 0 0 0 1.706-1.362l.355-1.56a1.25 1.25 0 0 1 1.586-.919l1.628.501a1.75 1.75 0 0 0 2.02-.783l1.457-2.464a1.75 1.75 0 0 0-.34-2.193l-1.157-1.038a1.25 1.25 0 0 1 0-1.863l1.159-1.039a1.75 1.75 0 0 0 .338-2.193l-1.456-2.464a1.75 1.75 0 0 0-2.02-.782l-1.629.5a1.25 1.25 0 0 1-1.586-.917l-.355-1.562ZM15 12a3 3 0 1 1-6 0 3 3 0 0 1 6 0Z" clip-rule="evenodd"/>
</svg>
