<svg xmlns="http://www.w3.org/2000/svg" fill="none" viewBox="0 0 24 24">
  <path stroke="currentColor" stroke-linejoin="round" stroke-width="1.5" d="M9.55 2.778A1 1 0 0 1 10.523 2h2.953a1 1 0 0 1 .975.778l.355 1.562a2 2 0 0 0 2.538 1.468l1.627-.5a1 1 0 0 1 1.155.447l1.456 2.464a1 1 0 0 1-.193 1.253l-1.16 1.04a2 2 0 0 0 0 2.978l1.16 1.038a1 1 0 0 1 .193 1.254l-1.456 2.464a1 1 0 0 1-1.155.447l-1.627-.5a2 2 0 0 0-2.538 1.468l-.355 1.56a1 1 0 0 1-.976.779h-2.952a1 1 0 0 1-.975-.778l-.355-1.562a2 2 0 0 0-2.538-1.468l-1.628.5a1 1 0 0 1-1.154-.446l-1.456-2.464a1 1 0 0 1 .193-1.254l1.16-1.038a2 2 0 0 0 0-2.979L2.61 9.472a1 1 0 0 1-.194-1.253l1.456-2.464a1 1 0 0 1 1.155-.447l1.628.5A2 2 0 0 0 9.194 4.34l.355-1.562Z"/>
  <circle cx="12" cy="12" r="3" stroke="currentColor" stroke-linejoin="round" stroke-width="1.5"/>
</svg>
