<svg xmlns="http://www.w3.org/2000/svg" fill="currentColor" viewBox="0 0 24 24">
  <path d="M9.75 19.25a1 1 0 1 0-2 0 1 1 0 0 0 2 0Zm9.75 0a1 1 0 1 0-2 0 1 1 0 0 0 2 0Zm1.5 0a2.5 2.5 0 1 1-4.79-1h-5.17a2.5 2.5 0 1 1-4.33-.442 1.745 1.745 0 0 1-.572-1.069L4.376 3.966a.25.25 0 0 0-.247-.216H2a.75.75 0 0 1 0-1.5h2.129a1.75 1.75 0 0 1 1.733 1.51l.068.49h14.874a1.75 1.75 0 0 1 1.722 2.06l-1.152 6.403a1.75 1.75 0 0 1-1.572 1.434l-12.36 1.067.182 1.32a.25.25 0 0 0 .247.216H18.5a2.5 2.5 0 0 1 2.5 2.5Z"/>
</svg>
