<svg xmlns="http://www.w3.org/2000/svg" fill="currentColor" viewBox="0 0 24 24">
  <path fill-rule="evenodd" d="M7.5 1.25a6.25 6.25 0 0 0-5.197 9.723 9.75 9.75 0 0 0 10.724 10.724 6.25 6.25 0 0 0 8.67-8.67A9.75 9.75 0 0 0 10.973 2.303 6.224 6.224 0 0 0 7.5 1.25Zm4.5 6C9.8 7.25 8.25 8.4 8.25 10c0 1.015.647 1.627 1.337 1.991.644.34 1.468.546 2.178.723l.053.014c.778.194 1.429.361 1.894.607.435.23.538.43.538.665 0 .4-.45 1.25-2.25 1.25S9.75 14.4 9.75 14a.75.75 0 0 0-1.5 0c0 1.6 1.55 2.75 3.75 2.75s3.75-1.15 3.75-2.75c0-1.015-.647-1.627-1.337-1.991-.644-.34-1.468-.546-2.178-.723l-.053-.014c-.778-.194-1.429-.361-1.894-.607-.435-.23-.538-.43-.538-.665 0-.4.45-1.25 2.25-1.25s2.25.85 2.25 1.25a.75.75 0 0 0 1.5 0c0-1.6-1.55-2.75-3.75-2.75Z" clip-rule="evenodd"/>
</svg>
