<svg xmlns="http://www.w3.org/2000/svg" fill="currentColor" viewBox="0 0 24 24">
  <path fill-rule="evenodd" d="M12 1.75a3.384 3.384 0 0 1 3.238 2.408C18.858 5.46 21.4 8.895 21.4 13c0 .506-.039 1.002-.113 1.486a3.388 3.388 0 0 1 1.463 2.791 3.386 3.386 0 0 1-4.785 3.085A9.3 9.3 0 0 1 12 22.5a9.302 9.302 0 0 1-5.965-2.138 3.386 3.386 0 0 1-4.785-3.085c0-1.156.579-2.179 1.463-2.79A9.77 9.77 0 0 1 2.6 13c0-4.105 2.543-7.54 6.162-8.841A3.384 3.384 0 0 1 12 1.75ZM19.4 13c0-2.998-1.707-5.533-4.22-6.704A3.383 3.383 0 0 1 12 8.527a3.383 3.383 0 0 1-3.18-2.231C6.307 7.467 4.6 10.002 4.6 13c0 .301.017.598.05.889a3.385 3.385 0 0 1 3.363 3.388c0 .63-.172 1.221-.471 1.727A7.322 7.322 0 0 0 12 20.5a7.321 7.321 0 0 0 4.458-1.495 3.384 3.384 0 0 1-.47-1.728 3.385 3.385 0 0 1 3.361-3.388c.034-.291.05-.588.05-.889Z" clip-rule="evenodd"/>
</svg>
