<svg xmlns="http://www.w3.org/2000/svg" fill="none" viewBox="0 0 24 24">
  <path stroke="currentColor" stroke-linecap="round" stroke-linejoin="round" stroke-width="1.5" d="M14.632 5.032a8.446 8.446 0 0 1 5.79 8.024 8.5 8.5 0 0 1-.18 1.74M9.368 5.031a8.446 8.446 0 0 0-5.79 8.024c.001.596.063 1.178.18 1.74m13.915 4.5c.458.387 1.05.62 1.695.62A2.635 2.635 0 0 0 22 17.279a2.635 2.635 0 0 0-2.632-2.64 2.635 2.635 0 0 0-2.631 2.64c0 .81.364 1.534.936 2.018Zm0 0A8.378 8.378 0 0 1 12 21.5a8.378 8.378 0 0 1-5.673-2.204m0 0a2.636 2.636 0 0 0 .936-2.018 2.635 2.635 0 0 0-2.631-2.64A2.635 2.635 0 0 0 2 17.279a2.635 2.635 0 0 0 2.632 2.639c.645 0 1.237-.234 1.695-.62ZM14.632 5.14A2.635 2.635 0 0 1 12 7.778a2.635 2.635 0 0 1-2.632-2.64A2.635 2.635 0 0 1 12 2.5a2.635 2.635 0 0 1 2.632 2.639Z"/>
</svg>
