<svg xmlns="http://www.w3.org/2000/svg" fill="none" viewBox="0 0 24 24">
  <path stroke="currentColor" stroke-linejoin="round" stroke-width="1.579" d="M11.016 3.125c.387-.833 1.58-.833 1.968 0l2.136 4.602c.158.34.482.573.856.617l5.067.597c.918.108 1.286 1.233.608 1.856l-3.748 3.444a1.07 1.07 0 0 0-.326.998l.994 4.974c.18.9-.785 1.595-1.592 1.147l-4.45-2.475a1.09 1.09 0 0 0-1.059 0L7.02 21.36c-.806.448-1.771-.247-1.591-1.147l.994-4.974a1.07 1.07 0 0 0-.326-.998l-3.749-3.444c-.677-.623-.309-1.748.609-1.856l5.067-.597c.374-.044.698-.278.856-.617l2.136-4.602Z"/>
</svg>
