<svg xmlns="http://www.w3.org/2000/svg" fill="currentColor" viewBox="0 0 24 24">
  <path d="M10.3 2.793c.67-1.443 2.73-1.443 3.4 0l2.136 4.602a.294.294 0 0 0 .232.166l5.068.596c1.578.186 2.232 2.136 1.05 3.222l-3.748 3.444a.28.28 0 0 0-.087.261l.995 4.975c.315 1.574-1.369 2.76-2.75 1.99l-4.45-2.474a.3.3 0 0 0-.291 0l-4.45 2.475c-1.382.768-3.065-.417-2.75-1.991l.995-4.975a.28.28 0 0 0-.087-.26l-3.748-3.445c-1.182-1.086-.529-3.036 1.05-3.222l5.067-.596a.293.293 0 0 0 .232-.166L10.3 2.793Z"/>
</svg>
