<svg xmlns="http://www.w3.org/2000/svg" fill="currentColor" viewBox="0 0 24 24">
  <path fill-rule="evenodd" d="M15 1.5a1 1 0 0 0-1-1h-4a1 1 0 1 0 0 2h1v.8c-4.915.502-8.75 4.653-8.75 9.7 0 5.385 4.365 9.75 9.75 9.75s9.75-4.365 9.75-9.75c0-5.047-3.835-9.198-8.75-9.7v-.8h1a1 1 0 0 0 1-1Zm-4 6a1 1 0 1 1 2 0v4.985l3.081 2.202.08.063a1 1 0 0 1-1.156 1.62l-.086-.056-3.5-2.5A1 1 0 0 1 11 13V7.5Z" clip-rule="evenodd"/>
  <path d="M18.293 3.293a1 1 0 0 1 1.414 0l2 2 .068.076a1 1 0 0 1-1.406 1.406l-.076-.068-2-2a1 1 0 0 1 0-1.414Z"/>
</svg>
