<svg xmlns="http://www.w3.org/2000/svg" fill="currentColor" viewBox="0 0 24 24">
  <path fill-rule="evenodd" d="M12 1.25C6.063 1.25 1.25 6.063 1.25 12S6.063 22.75 12 22.75 22.75 17.937 22.75 12 17.937 1.25 12 1.25Zm2.364 5.25a1 1 0 1 0-2 0v7.792a2.195 2.195 0 0 1-2.182 2.208A2.195 2.195 0 0 1 8 14.292c0-1.228.985-2.209 2.182-2.209a1 1 0 1 0 0-2C7.864 10.083 6 11.975 6 14.292c0 2.316 1.864 4.208 4.182 4.208 2.317 0 4.182-1.892 4.182-4.208V9.934a4.74 4.74 0 0 0 2.636.774 1 1 0 1 0 0-2c-1.713 0-2.636-1.377-2.636-2.208Z" clip-rule="evenodd"/>
</svg>
