<svg xmlns="http://www.w3.org/2000/svg" fill="currentColor" viewBox="0 0 24 24">
  <path fill-rule="evenodd" d="M19 21.75A2.75 2.75 0 0 0 21.75 19V5A2.75 2.75 0 0 0 19 2.25H5A2.75 2.75 0 0 0 2.25 5v14A2.75 2.75 0 0 0 5 21.75h14ZM6 14.292c0-2.316 1.864-4.209 4.182-4.209a1 1 0 0 1 0 2c-1.197 0-2.182.982-2.182 2.209s.985 2.208 2.182 2.208 2.181-.98 2.181-2.208V6.5a1 1 0 0 1 2 0c0 .83.924 2.208 2.637 2.208a1 1 0 0 1 0 2 4.738 4.738 0 0 1-2.637-.776v4.36c0 2.316-1.864 4.208-4.181 4.208C7.864 18.5 6 16.608 6 14.292Z" clip-rule="evenodd"/>
</svg>
