<svg xmlns="http://www.w3.org/2000/svg" fill="currentColor" viewBox="0 0 24 24">
  <path fill-rule="evenodd" d="M11.47 12.47a.75.75 0 0 1 1.06 0l2.5 2.5a.75.75 0 0 1-.53 1.28h-1.75V21a.75.75 0 0 1-1.5 0v-4.75H9.5a.75.75 0 0 1-.53-1.28l2.5-2.5Z" clip-rule="evenodd"/>
  <path fill-rule="evenodd" d="M5.5 9.236a.865.865 0 0 0 .107-.04 3.548 3.548 0 0 1 2.123-.062 1 1 0 0 0 .54-1.925 5.583 5.583 0 0 0-1.467-.21 6 6 0 0 1 10.803 5.144 1 1 0 1 0 1.869.714c.163-.427.29-.872.38-1.33A3.081 3.081 0 0 1 21 13.936c0 1.437-.966 2.632-2.253 2.968a1 1 0 1 0 .506 1.935C21.417 18.274 23 16.286 23 13.936a5.067 5.067 0 0 0-3.032-4.656 8 8 0 0 0-15.58-1.745c-1.528.723-2.734 2.128-3.193 3.924-.806 3.156.967 6.46 4.068 7.332.189.053.378.096.568.128a1 1 0 1 0 .34-1.97 3.61 3.61 0 0 1-.367-.083c-1.983-.558-3.227-2.735-2.671-4.912.339-1.328 1.255-2.296 2.366-2.718Z" clip-rule="evenodd"/>
</svg>
