<svg xmlns="http://www.w3.org/2000/svg" fill="currentColor" viewBox="0 0 24 24">
  <path d="M16.75 12H12V7.25A4.75 4.75 0 1 0 16.75 12Z"/>
  <path fill-rule="evenodd" d="m23.167 12.083.727.364c.141-.281.14-.613 0-.895l-.002-.003-.003-.007-.011-.022a10.615 10.615 0 0 0-.192-.354 20.675 20.675 0 0 0-2.831-3.85C18.895 5.226 15.899 3 12 3 8.1 3 5.104 5.226 3.145 7.316a20.674 20.674 0 0 0-2.831 3.85 12.375 12.375 0 0 0-.192.354l-.011.022-.003.007-.002.002s0 .002.894.449l-.894-.447a1 1 0 0 0 0 .894l.002.004.003.007.011.022a8.267 8.267 0 0 0 .192.354 20.67 20.67 0 0 0 2.831 3.85C5.105 18.774 8.1 21 12 21c3.9 0 6.895-2.226 8.855-4.316a20.672 20.672 0 0 0 2.831-3.85 11.81 11.81 0 0 0 .175-.322l.017-.032.011-.022.003-.007.002-.002s0-.002-.727-.366Zm-.096-.119.823-.412-.823.412ZM12 5a7 7 0 1 0 0 14 7 7 0 0 0 0-14Z" clip-rule="evenodd"/>
</svg>
