<svg xmlns="http://www.w3.org/2000/svg" fill="currentColor" viewBox="0 0 24 24">
  <path fill-rule="evenodd" d="m23.67 11.663-.015-.03-.032-.06-.007-.013a18.339 18.339 0 0 0-.72-1.217 20.43 20.43 0 0 0-2.224-2.856C18.733 5.42 15.799 3.25 12 3.25c-3.8 0-6.734 2.17-8.672 4.237a20.43 20.43 0 0 0-2.796 3.801 11.69 11.69 0 0 0-.149.272l-.007.014-.032.06-.015.03a.76.76 0 0 0 0 .673l.015.03.032.06.007.013a18.262 18.262 0 0 0 .72 1.217 20.432 20.432 0 0 0 2.225 2.856C5.266 18.58 8.2 20.75 12 20.75c3.8 0 6.733-2.17 8.672-4.237a20.433 20.433 0 0 0 2.795-3.801c.065-.115.115-.208.149-.272l.007-.013.02-.037.012-.024.015-.03a.756.756 0 0 0 0-.673ZM12 5.75a4.25 4.25 0 1 1 0 8.5 4.25 4.25 0 0 1 0-8.5Z" clip-rule="evenodd"/>
</svg>
