<svg xmlns="http://www.w3.org/2000/svg" fill="currentColor" viewBox="0 0 24 24">
  <path fill-rule="evenodd" d="m.33 11.664.015-.03.032-.06.007-.014a18.263 18.263 0 0 1 .72-1.217 20.43 20.43 0 0 1 2.224-2.856C5.268 5.42 8.201 3.25 12 3.25c3.8 0 6.734 2.17 8.672 4.237a20.425 20.425 0 0 1 2.796 3.801c.065.115.115.208.149.272l.007.014.032.06.014.03a.75.75 0 0 1 .001.672l-.015.03a5.739 5.739 0 0 1-.032.06l-.007.014a18.252 18.252 0 0 1-.72 1.217 20.427 20.427 0 0 1-2.225 2.856C18.734 18.58 15.8 20.75 12 20.75c-3.8 0-6.733-2.17-8.671-4.237a20.432 20.432 0 0 1-2.796-3.801 12.06 12.06 0 0 1-.149-.272l-.007-.013-.032-.06-.015-.03a.756.756 0 0 1 0-.673ZM15.75 12a3.75 3.75 0 1 1-7.5 0 3.75 3.75 0 0 1 7.5 0Z" clip-rule="evenodd"/>
</svg>
