<svg xmlns="http://www.w3.org/2000/svg" fill="currentColor" viewBox="0 0 24 24">
  <path fill-rule="evenodd" d="M12 1.25C6.063 1.25 1.25 6.063 1.25 12c0 1.802.444 3.501 1.228 4.994l-1.206 4.824a.75.75 0 0 0 .91.91l4.824-1.206A10.706 10.706 0 0 0 12 22.75c5.937 0 10.75-4.813 10.75-10.75S17.937 1.25 12 1.25Zm3.16 12.04c.245.09 1.56.733 1.828.866v.001l.145.071c.187.09.313.151.367.24.067.111.067.645-.156 1.266-.223.622-1.292 1.19-1.805 1.266-.461.069-1.044.097-1.685-.106a15.383 15.383 0 0 1-1.525-.56c-2.506-1.078-4.2-3.495-4.522-3.954l-.047-.066-.002-.002c-.14-.186-1.09-1.447-1.09-2.752 0-1.226.605-1.87.883-2.165l.053-.056a.984.984 0 0 1 .713-.333c.179 0 .357.002.513.01h.06c.156 0 .35-.001.541.456.078.185.193.463.313.753.225.547.469 1.137.512 1.224.067.133.112.288.022.466l-.039.08a1.49 1.49 0 0 1-.228.364l-.14.166c-.09.111-.182.222-.261.3-.134.133-.273.277-.117.544.156.266.692 1.138 1.488 1.844a6.905 6.905 0 0 0 1.973 1.241c.074.032.134.058.178.08.267.133.423.111.58-.067.155-.177.668-.777.846-1.043.178-.267.357-.223.602-.134Z" clip-rule="evenodd"/>
</svg>
