<svg xmlns="http://www.w3.org/2000/svg" fill="none" viewBox="0 0 24 24">
  <path stroke="currentColor" stroke-linejoin="round" stroke-width="1.5" d="M12.806 14.02c-.849-.282-1.532-.824-1.768-1.06-.236-.235-.778-.919-1.06-1.767l1.202-1.91L9.553 5.96c-.943 0-3.04.778-3.323 3.323-.283 2.546 1.532 5.068 2.475 6.01.942.944 3.464 2.759 6.01 2.476 2.546-.283 3.323-2.381 3.323-3.324l-3.323-1.626-1.91 1.202Z"/>
  <path stroke="currentColor" stroke-linejoin="round" stroke-width="1.5" d="M12 2c5.523 0 10 4.477 10 10s-4.477 10-10 10a9.953 9.953 0 0 1-5.183-1.446L2 22l1.445-4.818A9.953 9.953 0 0 1 2 12C2 6.477 6.477 2 12 2Z"/>
</svg>
