<svg xmlns="http://www.w3.org/2000/svg" fill="currentColor" viewBox="0 0 24 24">
  <path d="M2.778 12a9.225 9.225 0 0 0 5.198 8.3l-4.4-12.054A9.18 9.18 0 0 0 2.779 12Zm15.447-.465c0-1.139-.409-1.929-.76-2.543-.466-.76-.905-1.402-.905-2.162 0-.847.642-1.637 1.548-1.637.04 0 .079.005.119.007A9.185 9.185 0 0 0 12 2.778a9.21 9.21 0 0 0-7.705 4.158c.216.007.421.01.593.01.965 0 2.458-.117 2.458-.117.497-.03.557.7.06.76 0 0-.5.057-1.055.087l3.359 9.988 2.018-6.052-1.437-3.936c-.497-.03-.967-.088-.967-.088-.497-.03-.439-.79.058-.76 0 0 1.523.118 2.428.118.965 0 2.458-.117 2.458-.117.497-.03.557.7.06.76 0 0-.5.057-1.054.087l3.332 9.913.92-3.074c.398-1.276.701-2.192.701-2.982l-.002.002Z"/>
  <path d="m12.16 12.807-2.766 8.04a9.25 9.25 0 0 0 5.667-.147.719.719 0 0 1-.065-.126l-2.835-7.767Zm7.931-5.231c.04.293.062.61.062.948 0 .935-.176 1.988-.702 3.302l-2.816 8.145a9.22 9.22 0 0 0 4.585-7.973 9.157 9.157 0 0 0-1.13-4.424l.002.002Z"/>
  <path d="M12 1.25C6.071 1.25 1.25 6.072 1.25 12S6.072 22.75 12 22.75c5.926 0 10.748-4.822 10.748-10.75C22.75 6.072 17.926 1.25 12 1.25Zm0 21.007c-5.656 0-10.257-4.601-10.257-10.259 0-5.657 4.6-10.255 10.256-10.255 5.655 0 10.256 4.601 10.256 10.257S17.655 22.259 12 22.259v-.002Z"/>
</svg>
