<svg xmlns="http://www.w3.org/2000/svg" fill="currentColor" viewBox="0 0 24 24">
  <path d="M12 1.25C6.075 1.25 1.25 6.074 1.25 12c0 5.928 4.824 10.75 10.75 10.75 5.928 0 10.75-4.822 10.75-10.75 0-5.926-4.822-10.75-10.75-10.75ZM2.336 12c0-1.4.302-2.732.837-3.933l4.61 12.63a9.665 9.665 0 0 1-5.447-8.696Zm9.666 9.665a9.629 9.629 0 0 1-2.731-.394l2.9-8.426 2.97 8.14c.02.047.044.091.07.132a9.655 9.655 0 0 1-3.21.548Zm1.33-14.195a19.275 19.275 0 0 0 1.106-.094c.522-.06.46-.826-.061-.795 0 0-1.565.122-2.577.122-.949 0-2.545-.122-2.545-.122-.52-.03-.583.765-.06.795 0 0 .492.062 1.013.094l1.506 4.125-2.117 6.342L6.08 7.47a20.357 20.357 0 0 0 1.106-.092c.52-.063.46-.828-.063-.797 0 0-1.563.122-2.575.122-.182 0-.395-.004-.621-.011A9.651 9.651 0 0 1 12 2.335a9.63 9.63 0 0 1 6.527 2.538c-.043-.002-.083-.007-.127-.007-.95 0-1.622.825-1.622 1.715 0 .795.46 1.47.949 2.266.367.644.796 1.471.796 2.665 0 .827-.316 1.787-.736 3.124l-.963 3.222L13.332 7.47Zm3.528 12.884 2.951-8.535c.552-1.38.734-2.481.734-3.461 0-.357-.022-.686-.064-.995A9.608 9.608 0 0 1 21.665 12a9.661 9.661 0 0 1-4.805 8.353Z"/>
</svg>
