<svg xmlns="http://www.w3.org/2000/svg" viewBox="0 0 41.903 50">
  <g id="Group_428" data-name="Group 428" transform="translate(-12536 -5904.264)">
    <g id="Group_427" data-name="Group 427" transform="translate(12253.468 5641.273)">
      <path id="Path_191" data-name="Path 191" d="M324.436,263.99V281.3l-.453.813-1.846,1.143a3.248,3.248,0,0,0-1.546,2.766v17.817a1,1,0,0,1-1,1h-1.6a2.141,2.141,0,0,0-.366.021V274.037a3.265,3.265,0,0,0-3.255-3.255h-27.95a3.883,3.883,0,0,1-2.746-6.631,3.8,3.8,0,0,1,2.746-1.16h37.02A1,1,0,0,1,324.436,263.99Z" fill="#3a3a3a"/>
      <path id="Path_192" data-name="Path 192" d="M313.754,273.671H286.417a6.73,6.73,0,0,1-3.885-1.221v36.656a3.885,3.885,0,0,0,3.885,3.885h27.337a.978.978,0,0,0,.979-.978V274.649A.978.978,0,0,0,313.754,273.671Zm-12.243,34.5H289.448a1.444,1.444,0,0,1,0-2.888h12.063a1.444,1.444,0,0,1,0,2.888Zm0-6.55H289.448a1.444,1.444,0,1,1,0-2.888h12.063a1.444,1.444,0,0,1,0,2.888Z" fill="#3a3a3a"/>
    </g>
  </g>
</svg>
