<svg xmlns="http://www.w3.org/2000/svg" viewBox="0 0 42.76 50">
  <g id="Group_429" data-name="Group 429" transform="translate(-12612.237 -5904.264)">
    <g id="Group_426" data-name="Group 426" transform="translate(12253.468 5641.273)">
      <path id="Path_188" data-name="Path 188" d="M398.606,262.991H364.849a6.081,6.081,0,0,0-6.079,6.081v37.841a6.085,6.085,0,0,0,6.079,6.078H389.9a2.927,2.927,0,0,0,2.923-2.923V306a.331.331,0,0,1,.33-.331h2.006a2.926,2.926,0,0,0,2.923-2.923V286.221a.33.33,0,0,1,.155-.281l1.919-1.2a2.908,2.908,0,0,0,1.374-2.479V265.914A2.927,2.927,0,0,0,398.606,262.991Zm-8.376,47.077a.331.331,0,0,1-.331.331h-25.05a3.49,3.49,0,0,1-3.487-3.486V274.051a6.048,6.048,0,0,0,3.487,1.1H389.9a.331.331,0,0,1,.331.331Zm8.707-27.8a.331.331,0,0,1-.156.281l-1.918,1.2a2.906,2.906,0,0,0-1.374,2.479v16.522a.331.331,0,0,1-.331.331h-2.006a2.76,2.76,0,0,0-.33.019V275.484a2.927,2.927,0,0,0-2.923-2.923h-25.05a3.489,3.489,0,0,1,0-6.978h33.757a.332.332,0,0,1,.331.331Z" fill="#3a3a3a"/>
      <path id="Path_189" data-name="Path 189" d="M378.371,297.614h-10.8a1.3,1.3,0,1,0,0,2.592h10.8a1.3,1.3,0,0,0,0-2.592Z" fill="#3a3a3a"/>
      <path id="Path_190" data-name="Path 190" d="M378.371,303.475h-10.8a1.3,1.3,0,0,0,0,2.592h10.8a1.3,1.3,0,0,0,0-2.592Z" fill="#3a3a3a"/>
    </g>
  </g>
</svg>
