<svg xmlns="http://www.w3.org/2000/svg" viewBox="0 0 50 42.669">
  <g id="Group_430" data-name="Group 430" transform="translate(-12688.827 -5907.93)">
    <g id="Group_425" data-name="Group 425" transform="translate(12253.468 5641.273)">
      <path id="Path_187" data-name="Path 187" d="M479.219,309.326H441.5a6.146,6.146,0,0,1-6.139-6.14V280.629a6.146,6.146,0,0,1,6.139-6.139h16.146a2.578,2.578,0,0,0,1.559-.529l7.778-5.95a6.607,6.607,0,0,1,4-1.354h8.243a6.146,6.146,0,0,1,6.14,6.139v30.39A6.146,6.146,0,0,1,479.219,309.326ZM441.5,278.5a2.134,2.134,0,0,0-2.13,2.131v22.557a2.133,2.133,0,0,0,2.13,2.131h37.721a2.133,2.133,0,0,0,2.131-2.131V272.8a2.133,2.133,0,0,0-2.131-2.13h-8.243a2.583,2.583,0,0,0-1.559.528h0l-7.777,5.95a6.606,6.606,0,0,1-3.995,1.353Z" fill="#3a3a3a"/>
    </g>
  </g>
</svg>
