<svg xmlns="http://www.w3.org/2000/svg" viewBox="0 0 49.999 43.039">
  <g id="Group_431" data-name="Group 431" transform="translate(-12757.909 -5907.745)">
    <g id="Group_421" data-name="Group 421" transform="translate(12253.468 5641.273)">
      <g id="Group_419" data-name="Group 419">
        <rect id="Rectangle_1549" data-name="Rectangle 1549" width="41.146" height="29.051" rx="1.176" transform="translate(513.295 280.459)" fill="#3a3a3a"/>
      </g>
      <g id="Group_420" data-name="Group 420">
        <path id="Path_179" data-name="Path 179" d="M507.47,309.511h-3.029V271.3a4.831,4.831,0,0,1,4.825-4.826h9.652a4.85,4.85,0,0,1,2.975,1.026l5.381,4.214a1.8,1.8,0,0,0,1.107.382h15.607v3.03H528.381a4.845,4.845,0,0,1-2.975-1.027l-5.381-4.213a1.805,1.805,0,0,0-1.107-.382h-9.652a1.8,1.8,0,0,0-1.8,1.8Z" fill="#3a3a3a"/>
      </g>
    </g>
  </g>
</svg>
