<svg xmlns="http://www.w3.org/2000/svg" viewBox="0 0 50 41.557">
  <g id="Group_433" data-name="Group 433" transform="translate(-12842.986 -5907.093)">
    <g id="Group_432" data-name="Group 432">
      <g id="Group_422" data-name="Group 422" transform="translate(12253.468 5641.273)">
        <path id="Path_180" data-name="Path 180" d="M617.625,278.59a5.549,5.549,0,0,0,3.7-1.4l5.451-4.809a3.206,3.206,0,0,1,2.124-.8h5.036v-3.9a1.853,1.853,0,0,0-1.857-1.856h-10.1a1.888,1.888,0,0,0-1.229.454L615.3,271.1a6.926,6.926,0,0,1-4.6,1.737h-19.33a1.864,1.864,0,0,0-1.857,1.87V299.75a1.865,1.865,0,0,0,1.857,1.87h3.714V281.8a3.216,3.216,0,0,1,3.206-3.206Z" fill="#3a3a3a"/>
        <path id="Path_181" data-name="Path 181" d="M638.394,274.249h-9.26l-.753.285-5.279,4.657a8.291,8.291,0,0,1-5.477,2.071H598.9a1.142,1.142,0,0,0-1.139,1.139v23.837a1.142,1.142,0,0,0,1.139,1.139H638.38a1.142,1.142,0,0,0,1.139-1.139V275.374A1.125,1.125,0,0,0,638.394,274.249Z" fill="#3a3a3a"/>
      </g>
    </g>
  </g>
</svg>
