<svg xmlns="http://www.w3.org/2000/svg"  viewBox="0 0 40.902 50">
  <g id="Group_436" data-name="Group 436" transform="translate(-12997.147 -5902)">
    <g id="Group_424" data-name="Group 424" transform="translate(12253.468 5641.273)">
      <path id="Path_184" data-name="Path 184" d="M783.4,270.3a3.6,3.6,0,0,1-.934-7.073,1.228,1.228,0,0,0,.934-1.177v-.11a1.208,1.208,0,0,0-1.208-1.209H749.653a5.968,5.968,0,0,0-5.973,5.945c0,.006,0,.012,0,.019v36.795a7.249,7.249,0,0,0,7.241,7.241H782.86a1.724,1.724,0,0,0,1.722-1.721V271.483A1.187,1.187,0,0,0,783.4,270.3Zm-36.29-6.141a3.588,3.588,0,0,1,2.548-1.054h28.976a5.969,5.969,0,0,0,0,7.195h-28.98a3.6,3.6,0,0,1-2.548-6.141Zm3.816,44.2a4.873,4.873,0,0,1-4.867-4.868V271.38a6.167,6.167,0,0,0,3.75,1.29h32.4v6.609H767.323a1.2,1.2,0,0,0-1.2,1.2v7.541a1.2,1.2,0,0,0,1.2,1.2h14.885v19.142Z" fill="#3a3a3a"/>
      <path id="Path_185" data-name="Path 185" d="M774.88,295.927H752.962a1.187,1.187,0,0,0,0,2.374H774.88a1.187,1.187,0,1,0,0-2.374Z" fill="#3a3a3a"/>
      <path id="Path_186" data-name="Path 186" d="M774.88,302.089H752.962a1.187,1.187,0,0,0,0,2.374H774.88a1.187,1.187,0,0,0,0-2.374Z" fill="#3a3a3a"/>
    </g>
  </g>
</svg>
