<svg xmlns="http://www.w3.org/2000/svg" xml:space="preserve" id="Layer_1" x="0" y="0" style="enable-background:new 0 0 200 200" version="1.1" viewBox="0 0 200 200"><path d="M100 107.04c-41.61 0-75.33 33.73-75.33 75.33 0 9.73 7.89 17.62 17.62 17.62h115.42c9.73 0 17.62-7.89 17.62-17.62 0-41.6-33.72-75.33-75.33-75.33zm57.69 78.74H42.29a3.41 3.41 0 0 1-3.4-3.4c0-33.7 27.41-61.11 61.11-61.11s61.11 27.41 61.11 61.11c0 1.87-1.52 3.4-3.42 3.4zM41.99 81.67h2.37c4.1 0 7.42-3.32 7.42-7.42V61.74c0-26.6 21.57-48.16 48.16-48.15 26.59 0 48.15 21.56 48.15 48.15v8.37c-.13.01-.25.02-.38.02h-10.72c.6-2.68.93-5.47.93-8.33 0-20.98-17.01-37.99-37.99-37.99S61.94 40.82 61.94 61.8s17.01 37.99 37.99 37.99c16.51 0 30.55-10.53 35.79-25.24h11.99c.13 0 .26-.02.39-.02.12 3.99 3.39 7.2 7.41 7.2h2.37c7.33 0 13.26-5.94 13.26-13.26V55.74c.01-7.07-5.53-12.89-12.59-13.24-10.59-32.38-45.44-50.03-77.81-39.42A61.719 61.719 0 0 0 41.32 42.5c-7.06.34-12.6 6.17-12.59 13.24v12.67c0 7.32 5.94 13.26 13.26 13.26zm57.96 3.89c-13.11 0-23.77-10.66-23.77-23.77 0-13.1 10.66-23.77 23.77-23.77 13.1 0 23.77 10.66 23.77 23.77 0 2.93-.54 5.74-1.51 8.33H115a4.03 4.03 0 0 0-3.4-1.86h-4.33c-2.23 0-4.05 1.81-4.05 4.05 0 2.23 1.81 4.05 4.05 4.05h4.33c1.41 0 2.65-.72 3.37-1.81h5.02c-4.23 6.61-11.63 11.01-20.04 11.01z" class="st0"/></svg>