<svg xmlns="http://www.w3.org/2000/svg" xml:space="preserve" id="Layer_1" x="0" y="0" style="enable-background:new 0 0 200 200" version="1.1" viewBox="0 0 200 200"><path d="M100 200C44.86 200 0 155.14 0 100S44.86 0 100 0s100 44.86 100 100-44.86 100-100 100zm0-185.76c-47.29 0-85.76 38.47-85.76 85.76 0 47.29 38.47 85.76 85.76 85.76 47.29 0 85.76-38.47 85.76-85.76 0-47.29-38.47-85.76-85.76-85.76z" class="st0"/><path d="M132.11 93.25 91.09 60.56c-5.66-4.51-14.02-.48-14.02 6.75v65.38c0 7.23 8.36 11.26 14.02 6.75l41.03-32.69c4.33-3.45 4.33-10.05-.01-13.5z" class="st0"/></svg>