<svg xmlns="http://www.w3.org/2000/svg" viewBox="0 0 18 19"><path d="M4.6 4.094H3.25c-.777 0-1.406.63-1.406 1.406v1.767h14.312V5.5c0-.777-.63-1.406-1.406-1.406H13.4v.462a.844.844 0 0 1-1.688 0v-.462H6.288v.462a.844.844 0 0 1-1.687 0v-.462Zm1.688-1.688h5.424V1a.844.844 0 1 1 1.687 0v1.406h1.351A3.094 3.094 0 0 1 17.844 5.5v10.375a3.094 3.094 0 0 1-3.094 3.094H3.25a3.094 3.094 0 0 1-3.094-3.094V5.5A3.094 3.094 0 0 1 3.25 2.406H4.6V1a.844.844 0 0 1 1.688 0v1.406ZM1.844 8.955v6.92c0 .777.63 1.406 1.406 1.406h11.5c.777 0 1.406-.63 1.406-1.406v-6.92H1.844Z"/></svg>