<svg viewBox="0 0 559.98 559.98"><path d="M279.99 0C125.6 0 0 125.6 0 279.99c0 154.39 125.6 279.99 279.99 279.99 154.39 0 279.99-125.6 279.99-279.99S434.38 0 279.99 0zm0 498.78c-120.64 0-218.79-98.146-218.79-218.79 0-120.64 98.146-218.79 218.79-218.79s218.79 98.152 218.79 218.79c0 120.64-98.146 218.79-218.79 218.79z"/><path d="M304.23 280.33V162.98c0-13.103-10.618-23.721-23.716-23.721-13.102 0-23.721 10.618-23.721 23.721v124.93c0 .373.092.723.11 1.096-.312 6.45 1.91 12.999 6.836 17.926l88.343 88.336c9.266 9.266 24.284 9.266 33.543 0 9.26-9.266 9.266-24.284 0-33.544l-81.395-81.392z"/></svg>