<svg xmlns="http://www.w3.org/2000/svg" viewBox="0 0 19 19"><path d="M9.43 13.224a.871.871 0 0 1 .555-.2h5.071c.802 0 1.452-.65 1.452-1.451v-8.13c0-.801-.65-1.451-1.452-1.451H3.444c-.802 0-1.452.65-1.452 1.452v8.129c0 .801.65 1.451 1.452 1.451h2.322c.481 0 .871.39.871.871v1.635l2.793-2.306Zm-5.986 1.542A3.194 3.194 0 0 1 .25 11.573v-8.13A3.194 3.194 0 0 1 3.444.25h11.612a3.194 3.194 0 0 1 3.194 3.194v8.129a3.194 3.194 0 0 1-3.194 3.193h-4.758L6.32 18.051a.871.871 0 0 1-1.426-.672v-2.613H3.444Z"/></svg>